<svg xmlns="http://www.w3.org/2000/svg" width="178" height="38" fill="none" viewBox="0 0 178 38"><path fill="#2d69e1" d="M127.481 1.225h-.786v35.554h.786zm43.963 25.26c-.56.277-.868.853-.868 1.6s.534 1.626 1.346 1.626 1.15-.47 1.291-1.268l.111-.66c.085-.412.282-.69.671-.69s.812.497.812.967-.337.966-.868.991v.58c.868-.055 1.402-.689 1.402-1.571s-.504-1.571-1.346-1.571-1.094.47-1.235 1.214l-.111.634c-.085.55-.364.773-.731.773-.56 0-.812-.496-.812-1.046s.419-1.13.983-1.16v-.58c-.252 0-.449.055-.645.14m1.487-5.494h.085c.478 0 1.094 0 1.457.357.223.22.338.47.338.773s-.085.55-.308.773c-.393.357-.983.357-1.457.357h-.086c-.478 0-1.094 0-1.457-.357-.223-.219-.308-.47-.308-.773 0-.302.085-.55.308-.773.393-.357.983-.357 1.457-.357m-.534-.55c-.504 0-1.008.164-1.375.525a1.55 1.55 0 0 0-.479 1.159c0 .44.141.827.479 1.159.478.496 1.179.55 1.906.55s1.431-.054 1.906-.55a1.55 1.55 0 0 0 .478-1.16 1.55 1.55 0 0 0-.478-1.158c-.479-.496-1.18-.55-1.906-.55h-.534m3.482-5.155h-.197v.441h.086c.166 0 .196.084.196.193 0 .193-.337.387-.337.799s.222.605.615.605h.167v-.441h-.111c-.141 0-.197-.084-.197-.194 0-.193.308-.386.308-.772 0-.387-.196-.605-.59-.605m-5.158-.084h3.786l-3.786 1.79v.634h4.569v-.55h-3.645l3.645-1.71v-.744h-4.569zm1.825-5.705 2.243.69-2.243.688zm-1.825-.55 1.291.386v1.71l-1.291.386v.58l4.569-1.462v-.744l-4.569-1.461zm-38.385 13.341v2.646h10.065v4.352h2.61v-4.352h2.885v-2.289h-2.885v-6.423h-2.61v6.423h-7.488l8.637-13.917h-2.859zm30.171-12.266c-1.064-1.046-2.466-1.71-4.654-1.71s-3.56.69-4.628 1.71c-2.188 2.15-2.525 4.99-2.525 8.956s.363 6.835 2.525 8.956c1.065 1.046 2.466 1.71 4.628 1.71s3.59-.69 4.654-1.71c2.188-2.15 2.526-4.99 2.526-8.956s-.364-6.834-2.526-8.956m-3.871 9.07-.086 3.141 1.628 1.24v.55l-2.299-1.046-2.299 1.046v-.55l1.628-1.24-.085-3.142-4.628 2.15v-1.516l4.568-3.444-.055-2.29c0-.218.085-.411.222-.579a.86.86 0 0 1 .59-.219h.111a.94.94 0 0 1 .59.219.78.78 0 0 1 .222.58l-.055 2.289 4.568 3.444v1.517l-4.628-2.15zM45.857 12.463h-4.82l-3.468 13.541h3.315l.623-2.58h3.705l.623 2.58h3.66zm-3.92 8.482 1.313-5.734h.17l1.358 5.734zm10.377-6.241c-.501 0-.91-.142-1.217-.423q-.462-.421-.463-1.144c0-.481.155-.879.463-1.152q.461-.41 1.216-.412.711.001 1.172.412.463.415.464 1.152c0 .492-.152.86-.464 1.144q-.462.422-1.172.423m11.627 11.3V12.462h7.92v2.432h-4.69v3.047h4.26v2.413h-4.26v3.171h4.736v2.479zm-13.132-10.37h3.011v10.37h-3.011zm34.098 10.37V15.637h2.066l.407 1.714h.063c.245-.678.627-1.189 1.154-1.535q.786-.517 2.162-.412v3.026l-2.885.317v7.257h-2.97zm-28.717 0V15.637h2.065l.39 1.714h.063q.364-1.017 1.153-1.535.786-.517 2.184-.412v3.026l-2.885.277v7.297zm43.761-9.087q-1.289-1.514-3.574-1.513c-1.524 0-2.715.503-3.582 1.513q-1.302 1.514-1.302 3.904c0 1.593.434 2.868 1.302 3.87q1.301 1.504 3.582 1.503 2.279 0 3.575-1.502 1.29-1.504 1.29-3.871c0-1.579-.43-2.895-1.29-3.904m-2.195 5.996q-.473.739-1.38.74c-.604 0-1.063-.248-1.386-.74q-.485-.742-.486-2.096c0-.904.16-1.626.486-2.129q.485-.75 1.387-.75.9 0 1.38.75c.315.503.474 1.21.474 2.13 0 .918-.16 1.6-.475 2.095m13.227-6.218q-1.045-1.29-2.807-1.29-.774 0-1.454.37-.676.372-1.153 1.196h-.063l-.323-1.334h-2.325v13.731h2.993v-3.787c.4.28.782.463 1.142.54q.54.115 1.034.116 1.724 0 2.863-1.312 1.141-1.313 1.142-4.272 0-2.664-1.042-3.955m-2.503 6.332c-.322.415-.708.623-1.149.623q-.391-.002-.731-.084-.346-.086-.753-.423v-4.465a2 2 0 0 1 .742-.507q.4-.148.827-.15.796 0 1.176.613.378.614.378 2.052.002 1.712-.486 2.337m12.415-6.714q-1.023-.908-3.37-.908-.903-.001-1.829.19-.923.19-2.024.572l.497 2.114a13 13 0 0 1 1.583-.445q.722-.148 1.261-.15 1.055 0 1.487.362.429.36.43.93v.593h-.968q-2.391 0-3.582.94-1.195.943-1.194 2.654 0 1.355.894 2.213.893.857 2.354.857.862 0 1.584-.369.723-.37 1.301-1.151h.063l.345 1.29h2.196v-6.58q0-2.2-1.024-3.112m-1.973 6.834q-.365.339-.797.584-.433.242-.927.244c-.33 0-.612-.095-.808-.285q-.29-.285-.29-.75 0-.7.594-1.04.59-.338 1.668-.338h.56zm-41.974 3.069q-1.463 0-2.348-.93-.883-.928-.882-3.174v-6.474h3.015v5.945q0 1.1.344 1.586.345.488 1.013.489.472-.001.838-.234.367-.23.582-.761v-7.025h3.015v10.367h-2.28l-.323-1.352h-.067c-.49.605-.953 1.02-1.398 1.239a3.4 3.4 0 0 1-1.505.328m-52.225-7.731-2.344 1.553v2.515l8.54-5.245q1.915-1.2 2.667-2.388.752-1.186.753-2.388 0-2.565-1.65-3.772-1.652-1.21-4.832-1.21-2.01 0-4.161.882-2.152.882-3.66 2.15-1.174-1.48-2.548-2.256t-3.434-.776q-5.335.001-8.907 4.523-3.578 4.526-3.601 9.911.023 4.561 1.71 6.514 1.684 1.95 4.364 1.95 1.793 0 3.72-.94 1.926-.94 4.22-2.844.933 1.952 2.607 2.87 1.673.917 4.068.918 3.396-.001 6.17-1.856 2.775-1.859 4.832-3.761l-1.172-1.787-2.225 1.623a19 19 0 0 1-2.87 1.69q-1.602.777-3.156.777-1.989.002-2.922-1.644-.93-1.646-.93-4.253-.001-4.654 2.095-7.969 2.095-3.313 4.913-3.313c1.009 0 1.68.259 2.025.776q.512.777.512 1.717 0 1.82-.939 2.971-.938 1.153-3.845 3.076m-8.207-4.72a15 15 0 0 1-.597 1.88q-.718 1.812-1.064 3.41-.347 1.596-.349 2.773-.001.984.049 1.564.05.576.144.999l-2.988 1.716q-.48.285-.946.46-.468.174-.924.175-1.427 0-2.21-1.644-.78-1.645-.782-3.81.001-5.056 2.41-8.205 2.413-3.15 5.147-3.149 1.219 0 1.77.612.549.612.548 1.622.001.705-.215 1.6"/></svg>