<?xml version="1.0" encoding="UTF-8"?>
<svg id="Layer_1" xmlns="http://www.w3.org/2000/svg" version="1.1" viewBox="0 0 549.7 137.8">
  <!-- Generator: Adobe Illustrator 29.8.2, SVG Export Plug-In . SVG Version: 2.1.1 Build 3)  -->
  <defs>
    <style>
      .st0 {
        fill: #0080be;
      }

      .st1 {
        fill: none;
      }
    </style>
  </defs>
  <rect class="st1" y="0" width="549.7" height="137.8"/>
  <g>
    <path class="st0" d="M31.65,62.33c-.34-.56-.9-1.12-1.46-1.46s-1.23-.56-1.9-.78c-.67-.11-1.23-.22-1.9-.22s-1.23,0-2.01.22c-.67.11-1.46.45-2.13.78s-1.34.78-1.9,1.46c-.56.56-1.12,1.34-1.68,2.35L.41,97.93c-.11.22-.22.56-.22.78,0,.34.11.78.45,1.01.34.22.67.34,1.01.34h3.81c.45,0,.78-.11,1.12-.34.34-.22.56-.56.78-.9l6.27-12.87h15.22l1.46,12.76c0,.34.22.67.34.9.22.34.67.45,1.01.45h3.81c.45,0,.9-.11,1.23-.45.34-.34.45-.78.45-1.23v-.22l-4.7-33.25c-.11-.9-.45-1.79-.78-2.35M16.31,80.46l7.95-14.22c.34-.56,1.01-.67,1.46-.67,1.01,0,1.12.67,1.12.67l1.68,14.22h-12.2ZM66.79,70.05c-1.01-1.01-2.24-1.79-3.69-2.35s-3.25-.9-5.26-.9c-4.48,0-8.28,1.23-11.19,3.81-2.91,2.57-4.81,6.16-5.82,10.86l-.78,4.03c-.22,1.34-.34,2.57-.34,3.69,0,2.01.34,3.81,1.12,5.15.78,1.46,1.68,2.57,2.91,3.47,1.23.9,2.57,1.57,4.14,1.9,1.46.34,3.02.56,4.59.56h0c2.13,0,4.03,0,5.71-.22s3.36-.45,5.26-.67c.56,0,1.01-.22,1.46-.56.34-.34.45-.67.56-1.23l.34-1.9h0v-.34c0-.34-.11-.67-.45-.9-.22-.22-.56-.22-.9-.22h-.34c-1.57.22-3.25.34-5.15.56-1.9.11-3.81.22-5.6.22s-4.14-.45-5.37-1.34c-1.23-.9-1.79-2.13-1.79-4.25v-1.57c0-.56.22-1.12.34-1.68v-.34h20.48c.56,0,1.12-.11,1.46-.56.22-.34.45-.78.56-1.12l.45-2.46c.22-1.23.34-2.46.34-3.58s-.22-3.02-.67-4.37c-.45-1.34-1.23-2.57-2.24-3.58M62.76,80.8h-15.22c.22-1.12.67-2.13,1.12-3.13.56-1.01,1.23-2.01,2.01-2.8.78-.78,1.68-1.46,2.8-1.79,1.01-.45,2.24-.67,3.47-.67,4.25,0,6.04,1.68,6.16,5.49,0,.9,0,1.79-.34,2.91M91.53,70.95l.45-2.46h0v-.34c0-.34-.11-.78-.56-1.01-.34-.22-.78-.34-1.12-.34h-.11c-1.46,0-3.02.22-4.59.56-1.23.34-2.46.78-3.81,1.68h0v-.34c0-.45,0-.78-.45-1.12-.34-.34-.67-.45-1.12-.45h-2.91c-.45,0-.9.11-1.23.45-.34.34-.56.67-.67,1.12l-5.6,29.44v.34c0,.45,0,.78.45,1.12.34.34.67.45,1.12.45h3.02c.45,0,.9-.11,1.23-.45.34-.34.67-.67.78-1.12l4.48-23.84c1.46-.78,2.69-1.34,3.92-1.68s2.69-.45,4.48-.45h.22c1.01,0,1.9-.45,2.01-1.46M116.72,70.05c-1.01-1.01-2.35-1.79-3.81-2.35-1.57-.56-3.25-.9-5.15-.9-9.4,0-15.34,4.93-17.01,14.55l-.78,4.37c0,.56-.22,1.12-.22,1.57v1.68c0,1.68.22,3.25.78,4.59s1.23,2.57,2.35,3.58c1.01,1.01,2.24,1.79,3.81,2.35,1.46.56,3.25.78,5.15.78s4.7-.34,6.72-1.01c1.9-.67,3.58-1.68,5.04-2.91,1.34-1.23,2.57-2.8,3.47-4.59s1.57-3.81,1.9-6.04l.78-4.37c0-.56.11-1.12.22-1.68v-1.68c0-1.68-.22-3.13-.78-4.59-.56-1.34-1.23-2.57-2.35-3.58M113.03,79.57c0,.56-.11,1.01-.22,1.68l-.78,4.37c-.22,1.34-.67,2.57-1.23,3.69s-1.23,2.01-2.13,2.91c-.78.78-1.79,1.46-2.8,1.9-1.01.45-2.24.67-3.47.67-2.35,0-3.92-.56-4.81-1.34-.9-.9-1.46-2.24-1.46-4.25,0-1.01.11-2.01.34-3.25l.78-4.37c.56-2.91,1.57-5.04,3.25-6.72,1.68-1.57,3.69-2.46,6.27-2.46,2.35,0,3.92.56,4.81,1.46s1.46,2.35,1.46,4.37v1.46M134.63,58.64c0-.34,0-.78-.34-1.01-.22-.34-.67-.34-1.01-.34h-3.25c-1.01,0-1.79.56-1.9,1.57l-7.39,39.4v.34c0,.45,0,.78.34,1.12.22.34.67.45,1.01.45h3.25c.45,0,.9-.22,1.23-.45.34-.34.56-.67.67-1.12l7.5-39.4v-.34l-.11-.22ZM143.81,67.14h-3.02c-.45,0-.9.11-1.34.45-.34.34-.67.67-.78,1.12l-5.6,29.44v.34c0,.45.11.78.45,1.12.34.22.67.34,1.12.34h3.02c.45,0,.9-.11,1.34-.45.34-.34.67-.67.78-1.12l5.49-29.44v-.34c0-.45-.11-.78-.45-1.12-.34-.34-.67-.34-1.12-.34M140.34,64.12h3.36c.45,0,.78,0,1.12-.34.22-.11.45-.45.78-.67l6.27-5.26c.22-.22.45-.56.56-1.01,0-.67-.78-.9-1.23-.9h-4.14c-.45,0-.78,0-1.12.34-.22.11-.45.34-.78.67l-5.26,5.15c-.34.34-.56.56-.56,1.01,0,.56.67.9,1.12.9M174.37,69.61c-.78-.9-1.9-1.57-3.13-2.01-1.23-.45-2.8-.67-4.48-.67s-4.03.22-5.71.78c-1.23.45-2.46.9-3.58,1.46h0v-.34c0-.34-.11-.67-.34-1.01-.22-.34-.78-.56-1.12-.56h-3.02c-.45,0-.9.22-1.23.45-.34.34-.56.67-.67,1.12l-5.6,29.44v.34c0,.34.11.67.34,1.01s.67.56,1.12.56h3.13c.45,0,.9-.11,1.34-.45.34-.34.67-.67.78-1.12l4.59-24.07c1.79-.78,3.36-1.34,4.59-1.57,1.34-.34,2.46-.45,3.69-.45,2.24,0,3.58.45,4.14,1.01.67.67,1.01,1.57,1.01,2.8v1.46c0,.56-.11,1.12-.22,1.57l-3.25,18.92v.22c0,.45.11.78.45,1.12.34.34.67.34,1.12.34h3.02c.45,0,.9-.22,1.23-.45.34-.34.67-.67.78-1.12l3.25-18.92c.22-1.12.34-2.13.34-3.25,0-1.23-.22-2.46-.56-3.58s-1.01-2.13-1.79-3.02M205.71,70.05c-1.01-1.01-2.24-1.79-3.69-2.35s-3.25-.9-5.26-.9c-4.48,0-8.28,1.23-11.19,3.81-2.91,2.57-4.81,6.16-5.82,10.86l-.78,4.03c-.22,1.34-.45,2.57-.45,3.69,0,2.01.34,3.81,1.12,5.26.78,1.46,1.68,2.57,2.91,3.47,1.23.9,2.57,1.57,4.14,1.9,1.46.45,3.02.56,4.59.56s4.03,0,5.71-.22,3.36-.45,5.26-.67c.56,0,1.01-.22,1.46-.56.34-.34.45-.67.56-1.23l.34-2.01h0v-.34c0-.34-.11-.67-.45-.9-.34-.22-.56-.22-.9-.22h-.34c-1.57.22-3.25.34-5.15.56-1.9.11-3.81.22-5.6.22s-4.14-.45-5.37-1.34c-1.23-.9-1.79-2.13-1.79-4.25v-1.57c0-.56.22-1.12.34-1.68v-.34h20.48c.56,0,1.01-.11,1.46-.56.22-.34.45-.78.56-1.12l.45-2.46c.22-1.23.34-2.46.34-3.58s-.22-3.02-.67-4.37c-.45-1.34-1.23-2.57-2.24-3.58M201.68,80.8h-15.22c.22-1.12.67-2.13,1.12-3.13.56-1.01,1.23-2.01,2.01-2.8s1.68-1.46,2.8-1.79c1.01-.45,2.24-.67,3.47-.67,4.25,0,6.04,1.68,6.16,5.49,0,.9,0,1.79-.34,2.91M240.53,69.49c0-.9-.78-1.34-1.57-1.46-1.57-.45-3.36-.67-5.26-1.01-1.9-.22-3.81-.34-5.71-.34s-3.69.22-5.49.67c-1.79.45-3.47,1.23-4.93,2.24-1.46,1.12-2.8,2.46-3.81,4.14-1.12,1.79-1.9,3.92-2.35,6.49l-1.12,5.71c-.22,1.23-.34,2.35-.34,3.58,0,1.79.22,3.47.78,4.81.56,1.34,1.23,2.46,2.24,3.36.9.9,2.01,1.57,3.25,2.01,1.23.45,2.57.67,3.92.67h0c1.01,0,2.01,0,2.91-.22.9-.11,1.68-.34,2.46-.67.78-.34,1.57-.67,2.35-1.12.45-.22.9-.56,1.46-.78v.45h0v.45c0,.34,0,.67.34,1.01.34.45.78.45,1.23.45h2.46c.45,0,.9-.22,1.23-.45.34-.34.56-.67.67-1.12l5.37-28.21v-.56M229.78,91.88c-1.68,1.01-3.13,1.79-4.37,2.35-1.34.56-2.69.78-4.03.78s-2.46-.45-3.47-1.23c-.9-.67-1.34-2.01-1.34-4.25s0-.78,0-1.23,0-.9.22-1.23l1.12-5.93c.56-3.02,1.68-5.15,3.25-6.72,1.57-1.46,3.81-2.24,6.94-2.24,1.34,0,2.46,0,3.36.22.67,0,1.34.22,2.01.34l-3.58,19.14h-.11ZM265.6,67.59c-.67-.11-1.34-.22-1.9-.34-.56,0-1.23-.22-1.9-.22s-1.46,0-2.35-.11h-3.13c-1.23,0-3.13.11-4.7.45-1.57.34-3.02.78-4.25,1.46-1.23.78-2.35,1.68-3.13,2.91-.78,1.23-1.23,2.8-1.23,4.59,0,2.8,1.9,5.26,5.37,7.5l5.71,3.36c1.46.78,2.35,1.57,2.8,2.01.45.56.56,1.01.56,1.57,0,.9-.22,1.46-.45,2.01-.34.56-.78,1.01-1.34,1.34-.56.34-1.23.56-2.01.78-.78.11-1.68.22-2.57.22h-2.01c-.78,0-1.68,0-2.57-.11-.9,0-1.79-.11-2.57-.22-.9,0-1.68-.11-2.46-.22h-.45c-.78,0-1.57.45-1.79,1.34l-.34,2.01h0v.22c0,.45.22.9.56,1.12.22.22.56.34.9.45.78.11,1.57.34,2.35.45.9.11,1.79.22,2.57.22.9,0,1.68,0,2.57.11h2.24c1.68,0,3.36-.22,5.04-.56s3.13-.9,4.48-1.68,2.35-1.9,3.13-3.13c.78-1.34,1.23-3.02,1.23-4.93,0-1.34-.45-2.69-1.23-3.92-.9-1.23-2.35-2.46-4.48-3.81l-5.6-3.36c-1.01-.67-1.9-1.23-2.46-1.79-.56-.45-.67-1.01-.67-1.57s.22-1.34.45-1.68c.34-.45.78-.78,1.34-1.12s1.23-.45,1.9-.56c.67,0,1.46-.11,2.13-.11,1.68,0,3.36,0,5.04.11,1.57,0,3.02.22,4.03.34h.22c.9,0,1.68-.56,1.79-1.46l.34-1.9h0v-.34c0-.78-.67-1.46-1.46-1.46"/>
    <path class="st0" d="M351.57,68.6c-1.46-.34-3.13-.56-5.15-.9-2.01-.34-3.92-.45-5.82-.45s-4.48.22-6.27.78c-1.9.56-3.47,1.34-4.93,2.46s-2.57,2.57-3.47,4.48c-.9,1.79-1.68,4.03-2.13,6.72l-.78,4.14c-.22,1.34-.45,2.69-.45,3.92,0,1.79.34,3.47.9,4.81.56,1.34,1.46,2.46,2.46,3.36,1.01.9,2.35,1.46,3.81,1.9,1.46.45,3.02.56,4.7.56h1.68c.67,0,1.34,0,2.01-.22.67,0,1.34-.22,1.9-.22.45,0,.78-.11,1.12-.22v.22c-.34,1.34-.56,2.35-1.01,3.25-.34.9-.9,1.57-1.46,2.01-.67.45-1.46.9-2.35,1.12-.9.22-2.13.34-3.47.34h-2.69c-1.01,0-1.9,0-2.91-.22-1.01,0-1.9-.11-2.69-.22-.78,0-1.46-.11-2.01-.22h-.22c-.34,0-.67,0-1.01.34-.34.22-.45.45-.56.9,0,0-.34,1.9-.34,2.01,0,.56.56,1.01,1.23,1.23.9.22,2.24.45,4.03.67,1.9.22,4.03.34,6.38.34s4.25-.22,5.93-.56,3.13-1.01,4.37-1.9c1.23-.9,2.24-2.13,3.02-3.58.78-1.57,1.34-3.36,1.79-5.6l5.6-29.33h0v-.45c0-.67-.56-1.01-1.34-1.23M342.17,94.9c-.45,0-1.01.22-1.46.22-.67,0-1.23.11-1.9.22h-3.47c-2.35,0-4.03-.45-5.04-1.23s-1.57-2.13-1.57-4.37v-1.9c0-.67.22-1.34.34-2.13l.78-4.25c.67-3.36,1.79-5.71,3.36-7.28s3.81-2.35,6.6-2.35c1.34,0,2.57,0,3.81.22,1.01.11,2.01.22,2.69.34l-4.14,22.16v.34ZM447.39,61.43v-.22c0-.78-.56-1.23-1.23-1.23h-3.13c-.45,0-.78.11-1.12.45-.34.22-.56.56-.67,1.01l-.34,2.46v.22c0,.78.56,1.23,1.23,1.23h3.13c.45,0,.78-.11,1.12-.45.34-.22.56-.56.67-1.01l.34-2.46ZM323.25,72.29c.9,0,1.68-.45,1.79-1.23l.45-2.46h0v-.22c0-.67-.67-1.12-1.46-1.12h-.11c-1.46,0-3.02.22-4.48.56-1.34.34-2.8,1.01-4.25,2.01v-.67h.11v-.22c0-.67-.56-1.23-1.23-1.23h-2.91c-.34,0-.78.11-1.12.45-.34.22-.56.56-.56.9l-5.49,29.33v.22c0,.67.45,1.23,1.23,1.23h3.02c.45,0,.78-.11,1.12-.45.34-.22.56-.56.67-1.01l4.48-23.96c1.46-.78,2.8-1.46,4.03-1.79,1.23-.34,2.8-.45,4.59-.45h.22l-.11.11ZM427.69,72.52h6.49c.45,0,.78-.11,1.12-.45.34-.22.56-.56.67-1.01l.34-2.01h0v-.34c0-.78-.56-1.23-1.23-1.23h-6.38l.9-4.81v-.22c0-.67-.45-1.12-1.01-1.12h-.22l-3.36.45c-.9,0-1.46.56-1.57,1.34l-.78,4.25h-4.14c-.34,0-.78.22-1.01.45-.34.22-.56.56-.56.9l-.34,1.57h0v.22c0,.67.56,1.12,1.23,1.12l3.92.45-3.69,19.81c0,.45-.11.9-.22,1.23v1.12c0,2.01.78,3.58,2.24,4.48s3.25,1.23,5.37,1.23,1.23,0,1.9,0,1.34,0,2.01-.22c.45,0,.9-.22,1.12-.45.22-.22.34-.45.45-.78l.34-2.13h0v-.22c0-.34,0-.67-.45-.78h-4.48c-1.01,0-1.68,0-2.01-.22-.34-.11-.56-.45-.56-1.23s0-.9.22-1.57l3.81-19.93-.11.11ZM508.96,69.83c0-.67-.56-1.01-1.34-1.12-1.57-.34-3.36-.67-5.26-1.01-1.9-.22-3.81-.34-5.71-.34s-3.69.22-5.49.67-3.36,1.23-4.81,2.24-2.69,2.46-3.81,4.14c-1.01,1.68-1.79,3.81-2.35,6.38l-1.12,5.71c-.22,1.23-.34,2.35-.34,3.47,0,1.79.22,3.36.78,4.7s1.23,2.46,2.13,3.25c.9.9,2.01,1.46,3.13,1.9,1.23.45,2.46.67,3.81.67s2.01,0,2.8-.22c.9-.11,1.68-.34,2.46-.67.78-.34,1.57-.67,2.35-1.12.67-.34,1.23-.78,2.01-1.23l-.22,1.12h0v.45c0,.34,0,.56.22.78.22.34.56.34,1.01.34h2.46c.45,0,.78-.11,1.12-.45.34-.22.56-.56.56-.9l5.37-28.21v-.56M498.66,92.22c-1.68,1.01-3.25,1.79-4.59,2.35s-2.8.9-4.14.9c-1.46,0-2.57-.45-3.69-1.23-1.01-.78-1.46-2.24-1.46-4.48s0-.9,0-1.34,0-.9.22-1.34l1.12-5.93c.56-3.02,1.68-5.26,3.36-6.83s4.03-2.35,7.16-2.35,2.46,0,3.36.22h0c.78,0,1.57.22,2.35.34l-3.69,19.59v.11ZM535.37,69.27c0-.67-.45-1.12-1.12-1.23-.67,0-1.23-.22-1.9-.34-.56,0-1.23-.22-1.9-.22s-1.46,0-2.35-.11h-3.13c-1.57,0-3.13.11-4.7.45-1.57.22-3.02.78-4.25,1.46-1.23.67-2.24,1.68-3.02,2.8-.78,1.23-1.23,2.69-1.23,4.48,0,2.69,1.79,5.04,5.26,7.16l5.71,3.36c1.46.78,2.46,1.57,2.8,2.13.45.56.67,1.12.67,1.68,0,.9-.22,1.57-.56,2.13s-.9,1.01-1.46,1.34c-.56.34-1.34.56-2.13.78s-1.68.22-2.57.22h-2.01c-.78,0-1.68,0-2.57-.11-.9,0-1.79-.11-2.69-.22-.9,0-1.68-.11-2.46-.22h-.45c-.78,0-1.34.45-1.46,1.12l-.34,2.01h0v.22c0,.34.11.67.45.9.22.11.56.22.78.34.67.11,1.46.34,2.35.45s1.68.22,2.57.22,1.68,0,2.57.11h2.24c1.68,0,3.36-.11,5.04-.45s3.13-.9,4.37-1.68c1.23-.78,2.24-1.79,3.02-3.02.78-1.34,1.12-2.91,1.12-4.81s-.45-2.57-1.23-3.69c-.78-1.12-2.24-2.35-4.37-3.69l-5.6-3.36c-1.12-.67-1.9-1.23-2.46-1.79s-.78-1.12-.78-1.79.22-1.46.56-1.9c.34-.45.9-.9,1.46-1.12.56-.34,1.23-.56,2.01-.56s1.46-.11,2.13-.11c1.68,0,3.36,0,5.04.11,1.68,0,3.02.22,4.03.34h.22c.78,0,1.34-.45,1.57-1.23l.34-1.9h0v-.34l.45.11ZM474.93,69.94c-.78-.9-1.79-1.46-3.02-2.01-1.23-.45-2.69-.67-4.37-.67s-4.03.22-5.6.78c-1.34.45-2.69,1.01-4.03,1.68v-.9c0-.34,0-.56-.34-.78-.22-.34-.56-.45-.9-.45h-3.02c-.34,0-.78.11-1.12.45-.34.22-.56.56-.56,1.01l-5.6,29.33v.22c0,.34,0,.56.34.78.22.34.56.45.9.45h3.02c.45,0,.78-.11,1.12-.45.34-.22.56-.56.67-1.01l4.59-24.18c1.9-.78,3.47-1.34,4.81-1.68,1.34-.22,2.57-.45,3.69-.45,2.24,0,3.69.45,4.37,1.12.78.67,1.12,1.68,1.12,3.02v1.46c0,.56-.11,1.12-.22,1.57l-3.58,18.92v.22c0,.78.56,1.23,1.23,1.23h3.02c.45,0,.78-.11,1.12-.45.34-.22.56-.56.67-1.01l3.58-18.92c.22-1.12.34-2.13.34-3.13s-.22-2.46-.56-3.58-.9-2.13-1.68-2.91M411.68,69.94c-.78-.9-1.79-1.46-3.02-2.01-1.23-.45-2.69-.67-4.37-.67s-4.03.22-5.6.78c-1.34.45-2.69,1.01-4.03,1.68v-1.01c0-.34,0-.56-.22-.78-.22-.34-.56-.45-.9-.45h-3.02c-.45,0-.78.11-1.12.45-.34.22-.56.56-.67,1.01l-5.49,29.33v.22c0,.34,0,.56.34.78.22.34.56.45.9.45h3.02c.45,0,.78-.11,1.12-.45.34-.22.56-.56.67-1.01l4.59-24.18c1.9-.9,3.47-1.46,4.81-1.68,1.34-.22,2.57-.45,3.69-.45,2.24,0,3.69.45,4.37,1.12s1.12,1.68,1.12,3.02v1.46c0,.56-.11,1.12-.22,1.57l-3.58,18.92v.22c0,.67.56,1.23,1.23,1.23h3.02c.45,0,.78-.11,1.12-.45.34-.22.56-.56.67-1.01l3.58-18.92c.22-1.12.34-2.13.34-3.13,0-1.23-.22-2.46-.56-3.58s-.9-2.13-1.68-2.91M379.78,70.5c-1.01-1.01-2.24-1.79-3.58-2.35-1.46-.56-3.13-.9-5.15-.9-4.48,0-8.17,1.23-11.08,3.69s-4.7,6.04-5.71,10.75l-.78,4.03c-.22,1.23-.34,2.46-.34,3.58,0,2.01.34,3.69,1.12,5.04s1.68,2.46,2.8,3.36,2.46,1.46,4.03,1.9c1.46.34,3.02.56,4.59.56h0c2.13,0,4.03,0,5.6-.22,1.68-.22,3.36-.45,5.26-.67.56,0,1.01-.22,1.23-.45.22-.22.45-.56.45-1.01l.34-2.01h0v-.34c0-.56-.56-.9-1.12-.9h-.34c-1.46.22-3.13.34-5.15.56-1.9.22-3.81.22-5.6.22s-4.25-.45-5.49-1.34c-1.34-.9-1.9-2.35-1.9-4.48v-1.68c0-.56.22-1.12.34-1.79v-.45h20.71c.45,0,.9-.11,1.23-.45.22-.34.34-.67.45-1.01l.45-2.46c.22-1.23.34-2.35.34-3.47,0-1.57-.22-2.91-.67-4.25-.45-1.34-1.23-2.46-2.24-3.47M376.2,81.25h-15.9c.34-1.34.67-2.46,1.23-3.58s1.23-2.01,2.13-2.91c.78-.78,1.79-1.46,2.91-1.9,1.12-.45,2.24-.67,3.58-.67,4.37,0,6.38,1.9,6.38,5.82,0,.9-.11,2.01-.34,3.13M444.48,68.6h-3.02c-.45,0-.78.11-1.12.45-.34.22-.56.56-.67,1.01l-5.26,28.54v.22c0,.67.56,1.23,1.23,1.23h3.02c.34,0,.78-.11,1.12-.45.34-.22.56-.56.67-1.01l5.37-28.54v-.22c0-.78-.56-1.23-1.23-1.23M295.71,62.33c-.34-.56-.9-1.12-1.46-1.46s-1.23-.56-1.9-.78c-.67-.11-1.23-.22-1.9-.22s-1.34,0-2.01.22c-.67.11-1.46.45-2.13.78s-1.34.78-1.9,1.46c-.56.56-1.12,1.34-1.68,2.35l-18.25,33.25c-.11.22-.22.56-.22.78,0,.34.11.78.45,1.01.34.22.67.34,1.01.34h3.81c.34,0,.78-.11,1.12-.34.34-.22.56-.45.78-.9l6.27-12.87h15.22l1.46,12.76c0,.34.22.67.34.9.22.34.67.45,1.01.45h3.81c.45,0,.9-.11,1.23-.45.34-.34.45-.78.45-1.23v-.22l-4.7-33.25c-.11-1.01-.45-1.79-.78-2.35M280.38,80.46l7.95-14.22c.34-.56,1.01-.67,1.57-.67,1.01,0,1.12.67,1.12.67l1.68,14.22h-12.31Z"/>
    <path class="st0" d="M503.58,44.2c-12.2,2.13-28.88,3.69-41.42,7.39-.22,0-.11.22,0,.22h87.42q.11,0,0-.22c-.56-2.91-2.8-6.16-9.63-6.16h-3.92c1.12,2.8-2.01,4.59-4.03,2.91-.9-.67-1.68-2.46.45-3.92,1.57-1.12,4.03-2.69,5.49-3.69,5.15-3.25,4.48-8.06-2.46-8.51-16.46-1.12-45.56-3.13-57.98-3.92-.22,0-.45.22-.22.22,9.74,5.26,18.47,5.71,28.21,9.29,5.49,2.01,4.48,4.93-2.13,6.04l.22.34Z"/>
  </g>
</svg>