<svg xmlns="http://www.w3.org/2000/svg" width="2178" height="2311" viewBox="0 0 2178 2311" fill="none"><path d="M299.85 1925.83L65.4218 1614.97V1845.39C65.4218 1864.48 66.1033 1876.75 68.1477 1882.89C70.1921 1889.02 75.6439 1894.47 84.5031 1899.25C93.3623 1904.02 106.31 1906.75 124.029 1906.75V1918.33H0V1906.75C15.674 1905.38 27.9406 1902.65 36.1183 1897.88C44.296 1893.11 49.0663 1888.34 51.1108 1882.89C52.4737 1877.43 53.1552 1864.48 53.1552 1844.71V1668.83C53.1552 1643.6 51.7922 1626.56 49.7478 1617.7C47.7034 1608.84 43.6145 1603.38 38.1627 1601.34C32.7109 1598.61 21.8073 1597.93 4.08886 1597.93V1586.34H102.222L298.487 1846.07V1647.7C298.487 1632.7 297.124 1622.47 293.717 1617.02C290.991 1610.88 284.857 1606.79 275.317 1603.38C265.776 1599.98 254.872 1597.93 241.924 1597.93V1586.34H362.546V1597.93C348.235 1599.29 337.331 1602.02 329.153 1606.11C320.976 1610.2 316.205 1615.65 313.479 1621.11C311.435 1627.24 310.072 1637.47 310.072 1651.1V1925.83H299.85Z" fill="white"></path><path d="M530.87 1597.93V1586.34H682.839V1597.93H676.025C659.669 1597.93 648.766 1599.29 643.995 1602.02C639.225 1604.75 635.818 1609.52 633.773 1617.02C631.729 1624.52 631.047 1641.56 631.047 1669.51V1832.44C631.047 1858.34 631.729 1875.39 633.092 1883.57C634.455 1891.75 637.862 1897.88 642.632 1901.29C648.084 1905.38 658.306 1907.43 673.299 1907.43H682.839V1919.02H530.87V1907.43H540.411C554.722 1907.43 564.262 1905.38 569.714 1901.97C575.166 1898.56 578.573 1893.11 579.936 1884.93C581.299 1877.43 581.981 1859.71 581.981 1831.76V1668.83C581.981 1642.24 581.299 1625.2 579.936 1617.7C578.573 1610.2 575.166 1604.75 570.396 1602.02C565.625 1599.29 554.722 1597.93 537.685 1597.93H530.87Z" fill="white"></path><path d="M860.705 1918.33V1909.47L1074.69 1597.25H971.104C948.616 1597.25 934.305 1597.93 927.49 1599.98C920.675 1602.02 913.179 1608.16 904.32 1619.74C895.46 1630.65 888.646 1644.97 884.557 1662.69H873.653L884.557 1586.34H1131.25V1597.93L919.312 1907.43H1020.85C1055.61 1907.43 1077.41 1904.7 1086.27 1899.25C1095.81 1893.79 1103.99 1884.25 1111.49 1871.3C1118.98 1858.34 1125.12 1845.39 1128.53 1832.44H1140.11L1128.53 1918.33H860.705Z" fill="white"></path><path d="M1578.98 1586.34H1690.06V1597.93C1675.07 1598.61 1664.17 1602.02 1657.35 1608.16C1649.86 1613.61 1645.77 1620.43 1643.72 1627.24C1642.36 1634.06 1641 1647.7 1641 1668.15V1778.58C1641 1806.53 1639.63 1827.67 1637.59 1841.3C1635.54 1854.94 1628.73 1868.57 1618.51 1881.52C1608.29 1894.47 1593.29 1905.38 1574.21 1912.88C1555.13 1920.38 1533.32 1924.47 1508.11 1924.47C1478.8 1924.47 1453.59 1919.7 1433.15 1909.47C1412.7 1899.25 1398.39 1886.29 1389.53 1870.61C1380.67 1854.94 1376.58 1833.12 1376.58 1806.53V1772.45V1668.83C1376.58 1642.24 1375.9 1625.2 1374.54 1617.7C1373.18 1610.2 1369.77 1604.75 1365 1602.02C1360.23 1599.29 1349.32 1597.93 1332.29 1597.93H1324.79V1586.34H1476.08V1597.93H1469.26C1452.91 1597.93 1442.01 1599.29 1437.23 1602.02C1432.46 1604.75 1429.06 1609.52 1427.01 1617.02C1424.97 1624.52 1424.29 1641.56 1424.29 1669.51V1773.81C1424.29 1809.94 1425.65 1835.85 1429.06 1850.84C1432.46 1865.84 1442.01 1879.48 1457 1890.38C1472.67 1901.97 1493.12 1907.43 1519.01 1907.43C1539.46 1907.43 1557.86 1903.34 1574.21 1895.84C1590.57 1888.34 1602.83 1878.8 1611.01 1867.21C1619.19 1855.62 1623.96 1844.03 1626 1832.44C1628.05 1820.17 1628.73 1801.76 1628.73 1775.86V1663.37C1628.73 1644.29 1627.37 1631.33 1625.32 1623.84C1623.28 1616.34 1618.51 1610.2 1611.69 1606.11C1604.88 1602.02 1593.29 1599.29 1578.3 1597.93V1586.34H1578.98Z" fill="white"></path><path d="M2167.78 1793.58H2178V1910.15H2167.78C2165.05 1897.2 2159.6 1884.93 2152.1 1875.39C2122.8 1908.11 2085.32 1925.15 2040.34 1925.15C1992.64 1925.15 1953.11 1910.15 1922.45 1879.48C1891.78 1848.8 1876.79 1809.26 1876.79 1758.81C1876.79 1726.09 1883.6 1695.41 1897.91 1666.1C1912.22 1636.79 1931.31 1615.65 1956.52 1601.34C1981.73 1587.02 2008.99 1580.21 2038.98 1580.21C2063.51 1580.21 2086 1584.98 2106.44 1595.2C2126.89 1605.43 2141.88 1617.02 2151.42 1629.29C2158.24 1615.65 2163.01 1601.34 2164.37 1586.34H2175.27L2178 1712.46H2167.78C2160.28 1667.46 2145.29 1636.79 2122.8 1619.06C2100.31 1601.34 2074.42 1593.16 2046.47 1593.16C2011.72 1593.16 1984.46 1607.47 1963.33 1635.42C1942.89 1663.37 1932.67 1704.28 1932.67 1756.77C1932.67 1806.53 1943.57 1844.71 1966.06 1871.3C1988.55 1897.88 2016.49 1910.84 2049.2 1910.84C2066.92 1910.84 2085.32 1906.75 2103.72 1897.88C2122.12 1889.02 2137.11 1874.7 2148.01 1854.25C2159.6 1833.12 2165.73 1813.35 2167.78 1793.58Z" fill="white"></path><path d="M566.307 1373.65V1396.83C566.307 1405.69 566.307 1411.14 566.989 1413.87C567.67 1416.59 568.352 1418.64 570.396 1420C572.441 1421.37 575.848 1422.05 580.618 1422.05H584.026V1425.46H533.597V1422.05H536.322C541.093 1422.05 544.5 1421.37 545.863 1420C547.908 1418.64 548.589 1417.28 549.27 1414.55C549.952 1411.82 549.952 1406.37 549.952 1396.83V1342.97C549.952 1334.11 549.952 1328.65 549.27 1325.93C548.589 1323.2 547.908 1321.84 545.863 1320.47C544.5 1319.79 540.411 1319.11 534.959 1319.11H532.915V1315.7L546.545 1315.02C557.448 1314.34 566.307 1314.34 572.441 1314.34C584.026 1314.34 592.885 1315.02 599.018 1317.07C605.152 1319.11 609.922 1321.84 614.011 1326.61C618.1 1331.38 620.144 1336.83 620.144 1343.65C620.144 1349.79 618.781 1355.24 616.055 1359.33C613.329 1364.1 609.24 1367.51 604.47 1369.56C599.7 1372.28 590.841 1372.97 577.893 1372.97H566.307V1373.65ZM566.307 1369.56H574.485C580.618 1369.56 586.07 1368.88 590.159 1367.51C594.248 1366.15 596.974 1363.42 599.7 1359.33C602.426 1355.24 603.789 1350.47 603.789 1344.33C603.789 1335.47 601.744 1328.65 596.974 1324.56C592.204 1320.47 585.389 1318.43 575.167 1318.43C571.759 1318.43 568.352 1318.43 566.989 1318.43V1369.56H566.307Z" fill="white"></path><path d="M799.372 1315.7H836.172V1319.11C831.402 1319.79 827.994 1320.47 825.268 1322.52C822.542 1324.56 821.18 1326.61 821.18 1328.65C820.498 1330.7 820.498 1335.47 820.498 1342.29V1379.1C820.498 1388.64 819.817 1395.46 819.135 1400.23C818.454 1405.01 816.409 1409.1 813.002 1413.87C809.594 1417.96 804.824 1422.05 798.009 1424.09C791.876 1426.82 784.38 1428.18 776.202 1428.18C766.661 1428.18 757.802 1426.82 750.987 1423.41C744.173 1420 739.402 1415.91 736.676 1410.46C733.95 1405.01 732.588 1398.19 732.588 1389.33V1377.74V1343.65C732.588 1334.79 732.588 1329.34 731.906 1326.61C731.225 1323.88 730.543 1322.52 728.499 1321.16C727.136 1320.47 723.047 1319.79 717.595 1319.79H714.869V1315.7H765.298V1319.11H763.254C757.802 1319.11 754.395 1319.79 752.35 1320.47C750.987 1321.16 749.624 1323.2 748.943 1325.25C748.262 1327.97 748.262 1333.43 748.262 1342.97V1377.74C748.262 1390.01 748.943 1398.19 749.624 1403.64C750.987 1408.41 753.713 1413.19 759.165 1416.6C764.617 1420.69 771.432 1422.05 779.609 1422.05C786.424 1422.05 792.557 1420.69 798.009 1417.96C803.461 1415.23 807.55 1412.5 810.276 1408.41C813.002 1405.01 814.365 1400.92 815.046 1396.83C815.728 1392.74 815.728 1386.6 815.728 1377.74V1340.24C815.728 1334.11 815.046 1329.34 814.365 1327.29C813.683 1324.56 812.32 1322.52 809.594 1321.16C807.55 1319.79 803.461 1319.11 798.691 1318.43V1315.7H799.372Z" fill="white"></path><path d="M1024.94 1391.37H1029.03L1026.99 1425.46H935.668V1422.05H937.712C943.164 1422.05 946.572 1421.37 948.616 1420C949.979 1418.64 951.342 1416.6 951.342 1414.55C952.023 1412.5 952.023 1406.37 952.023 1397.51V1342.97C952.023 1334.79 952.023 1329.34 951.342 1326.61C950.66 1323.88 949.979 1321.84 947.935 1321.16C946.572 1319.79 942.483 1319.79 937.712 1319.79V1315.7H1016.76L1019.49 1342.97H1015.4C1013.36 1335.47 1011.31 1330.02 1009.27 1326.61C1006.54 1323.2 1003.82 1321.16 1000.41 1320.47C997.001 1319.79 991.549 1319.11 983.371 1319.11H967.697V1365.47H979.282C984.734 1365.47 988.142 1364.79 990.868 1364.1C992.912 1363.42 994.275 1362.06 994.956 1360.01C995.638 1357.97 996.319 1354.56 996.319 1349.11H1000.41V1386.6H996.319C996.319 1380.46 995.638 1376.37 994.956 1374.33C993.593 1372.28 992.231 1370.92 990.186 1370.24C988.142 1369.56 984.734 1369.56 979.964 1369.56H967.697V1395.46C967.697 1408.41 968.379 1415.91 970.423 1418.64C971.786 1420.69 976.557 1422.05 984.053 1422.05H992.231C998.364 1422.05 1003.13 1421.37 1006.54 1420C1009.95 1418.64 1014.04 1415.23 1017.45 1411.14C1020.17 1405.69 1022.9 1399.55 1024.94 1391.37Z" fill="white"></path><path d="M1244.38 1425.46H1214.39C1208.94 1422.05 1200.76 1411.82 1190.54 1396.83C1187.13 1392.05 1183.73 1387.28 1179.64 1382.51C1176.23 1377.74 1173.5 1375.01 1172.14 1374.33C1170.78 1373.65 1168.73 1372.97 1165.33 1372.97H1161.24V1397.51C1161.24 1406.37 1161.24 1411.82 1161.92 1414.55C1162.6 1417.28 1163.28 1419.32 1165.33 1420.69C1167.37 1422.05 1170.78 1422.73 1175.55 1422.73H1181V1426.14H1128.53V1422.73H1131.93C1136.7 1422.73 1140.11 1422.05 1141.47 1420.69C1143.52 1419.32 1144.2 1417.96 1144.88 1415.23C1145.56 1412.5 1145.56 1407.05 1145.56 1397.51V1342.97C1145.56 1334.11 1145.56 1328.65 1144.88 1325.93C1144.2 1323.2 1143.52 1321.84 1141.47 1320.47C1140.11 1319.79 1136.02 1319.11 1130.57 1319.11H1128.53V1315.7L1144.2 1315.02C1154.42 1314.34 1163.28 1314.34 1169.41 1314.34C1179.64 1314.34 1188.5 1315.02 1195.31 1317.07C1202.12 1319.11 1206.9 1322.52 1210.98 1326.61C1215.07 1331.38 1217.12 1336.15 1217.12 1342.29C1217.12 1349.79 1214.39 1355.92 1208.94 1360.69C1203.49 1365.47 1195.99 1368.88 1185.77 1370.24C1190.54 1372.28 1198.04 1380.46 1208.26 1394.1C1216.44 1405.01 1223.25 1412.5 1228.02 1415.91C1232.79 1419.32 1238.24 1421.37 1245.06 1421.37V1425.46H1244.38ZM1161.24 1368.88C1165.33 1368.88 1169.41 1368.88 1174.18 1368.19C1178.27 1368.19 1182.36 1367.51 1185.77 1366.15C1189.18 1364.78 1191.9 1363.42 1193.27 1362.06C1195.31 1360.01 1196.67 1357.97 1198.04 1354.56C1199.4 1351.83 1200.08 1347.74 1200.08 1343.65C1200.08 1336.15 1198.04 1330.02 1193.95 1325.25C1189.86 1320.47 1181.68 1318.43 1168.73 1318.43C1166.69 1318.43 1164.64 1318.43 1161.92 1318.43V1368.88H1161.24Z" fill="white"></path><path d="M1326.15 1341.61H1322.07L1322.75 1315.02H1429.74L1430.42 1341.61H1427.01C1425.65 1334.11 1424.29 1329.34 1421.56 1325.93C1419.52 1322.52 1416.79 1320.47 1414.75 1319.79C1412.02 1319.11 1407.93 1318.43 1401.8 1318.43H1384.08V1396.14C1384.08 1405.01 1384.08 1410.46 1384.76 1413.19C1385.44 1415.91 1386.12 1417.96 1388.17 1419.32C1390.21 1420.69 1393.62 1421.37 1398.39 1421.37H1403.84V1424.78H1348.64V1421.37H1354.09C1358.87 1421.37 1362.27 1420.69 1363.64 1419.32C1365.68 1417.96 1366.36 1416.6 1367.04 1413.87C1367.72 1411.14 1367.72 1405.69 1367.72 1396.14V1318.43H1351.37C1344.55 1318.43 1339.78 1319.11 1337.06 1319.79C1334.33 1320.47 1332.29 1322.52 1330.24 1325.93C1328.88 1330.02 1326.84 1334.79 1326.15 1341.61Z" fill="white"></path><path d="M1525.15 1369.56C1525.15 1352.51 1530.6 1338.88 1542.18 1328.65C1553.77 1318.43 1568.08 1312.98 1585.12 1312.98C1602.15 1312.98 1616.46 1317.75 1628.05 1327.97C1639.63 1338.2 1645.09 1351.83 1645.09 1369.56C1645.09 1386.6 1639.63 1400.23 1628.73 1411.14C1617.83 1421.37 1603.52 1426.82 1585.12 1426.82C1567.4 1426.82 1553.09 1421.37 1542.18 1411.14C1530.6 1400.92 1525.15 1387.28 1525.15 1369.56ZM1543.55 1370.24C1543.55 1387.96 1546.95 1401.6 1554.45 1410.46C1561.26 1419.32 1572.17 1424.09 1586.48 1424.09C1598.75 1424.09 1608.97 1419.32 1615.78 1410.46C1623.28 1401.6 1626.69 1388.65 1626.69 1370.92C1626.69 1353.88 1623.28 1340.93 1615.78 1331.38C1608.97 1322.52 1598.06 1317.75 1585.12 1317.75C1572.17 1317.75 1561.95 1322.52 1554.45 1331.38C1546.95 1339.56 1543.55 1353.2 1543.55 1370.24Z" fill="white"></path><path d="M586.07 503.103C586.07 224.965 811.639 0 1089 0C1366.36 0 1591.93 224.965 1591.93 503.103H586.07Z" fill="#B2C1DD"></path><path d="M1591.93 503.103C1591.93 780.559 1367.04 1006.21 1089 1006.21C810.958 1006.21 586.07 780.559 586.07 503.103H1591.93Z" fill="#629DA9"></path><path d="M245.331 2182.84V2201.93C245.331 2207.38 246.013 2210.79 246.694 2212.15C247.376 2213.52 249.42 2214.2 252.828 2214.2H255.553H259.642H267.139C273.272 2214.2 277.361 2210.79 280.768 2204.65L282.813 2200.56C283.494 2199.2 284.176 2199.2 285.538 2199.2C286.901 2199.2 287.583 2199.88 287.583 2201.93C287.583 2202.61 287.583 2203.97 287.583 2206.02C287.583 2207.38 287.583 2208.74 287.583 2210.11C287.583 2212.15 287.583 2216.24 288.264 2223.74C288.946 2228.51 288.946 2232.6 288.946 2235.33V2240.1C288.946 2240.78 288.946 2241.47 288.946 2241.47C288.946 2242.15 288.264 2242.15 287.583 2242.15C286.22 2242.15 284.857 2241.47 284.857 2238.74C284.175 2233.97 282.131 2229.88 279.405 2227.15C278.042 2225.79 275.998 2225.1 273.953 2224.42C271.909 2223.74 267.82 2223.74 261.687 2223.74H255.553C252.828 2223.74 250.783 2224.42 249.42 2225.1C248.057 2225.79 247.376 2227.83 247.376 2230.56C246.694 2233.28 246.694 2238.06 246.694 2244.87V2253.05C246.694 2261.24 247.376 2267.37 248.739 2270.78C249.42 2273.51 250.783 2275.55 252.146 2276.23C253.509 2276.91 255.553 2277.6 258.279 2277.6C282.131 2277.6 297.805 2270.1 305.301 2255.78C305.983 2255.1 305.983 2254.42 306.664 2254.42C307.346 2254.42 308.027 2254.42 308.027 2255.1C308.709 2255.78 308.709 2256.46 308.709 2257.14C308.709 2263.28 307.346 2268.73 303.938 2274.19C301.212 2278.96 297.805 2282.37 294.398 2284.41C290.309 2286.46 285.538 2287.14 278.724 2287.14C274.635 2287.14 270.546 2287.14 266.457 2286.46L256.235 2285.78C252.146 2285.09 247.376 2285.1 240.561 2285.1C236.472 2285.1 229.657 2285.09 220.798 2285.78C218.072 2285.78 216.709 2285.78 215.346 2285.78C213.983 2285.78 213.302 2285.09 213.302 2283.73C213.302 2282.37 213.983 2281.69 215.346 2281C218.754 2279.64 220.798 2278.28 222.161 2276.91C223.524 2275.55 224.206 2272.82 224.887 2269.42C225.568 2266.01 225.568 2261.92 225.568 2256.46V2186.25C225.568 2179.43 224.206 2175.34 222.161 2172.61C220.117 2170.57 215.346 2168.52 208.532 2167.84C207.169 2167.84 205.806 2166.48 205.806 2165.11C205.806 2163.75 206.487 2163.07 208.532 2163.07C209.213 2163.07 209.895 2163.07 211.257 2163.07C212.62 2163.07 213.983 2163.07 215.346 2163.07L224.206 2163.75L257.598 2164.43C276.679 2164.43 288.946 2164.43 293.035 2163.75C293.716 2163.75 293.716 2163.75 294.398 2163.75C296.442 2163.75 297.124 2164.43 297.124 2166.48C297.124 2167.84 297.124 2170.57 297.805 2173.98C298.487 2179.43 298.487 2182.84 298.487 2184.88C298.487 2189.66 297.124 2191.7 295.079 2191.7C293.716 2191.7 293.716 2190.34 293.716 2187.61C293.716 2181.47 291.672 2177.38 287.583 2174.66C283.494 2171.93 276.679 2170.57 266.457 2170.57H255.553L249.42 2171.25C246.694 2171.93 244.65 2175.34 244.65 2180.11L245.331 2182.84Z" fill="white"></path><path d="M350.961 2160.34C356.412 2160.34 361.864 2161.71 367.316 2163.75L373.449 2166.48C376.175 2167.84 378.22 2167.84 378.901 2167.84C379.583 2167.84 380.264 2167.84 381.627 2167.16L385.034 2165.8C385.716 2165.8 385.716 2165.11 386.397 2165.11C387.76 2165.11 388.442 2165.8 388.442 2167.84V2175.34C388.442 2176.7 388.442 2177.38 388.442 2178.75L389.805 2187.61L390.486 2195.79C390.486 2196.47 390.486 2197.15 390.486 2197.84C390.486 2200.56 389.805 2201.93 388.442 2201.93C387.079 2201.93 386.397 2200.56 386.397 2198.52C384.353 2190.34 380.264 2182.84 373.449 2177.38C366.635 2171.25 359.138 2168.52 351.642 2168.52C346.19 2168.52 341.42 2170.57 338.012 2173.98C333.924 2177.38 331.879 2182.16 331.879 2186.93C331.879 2191.7 333.924 2195.11 337.331 2198.52C339.375 2200.56 346.872 2203.97 358.457 2208.74C372.768 2214.2 381.627 2220.33 386.397 2225.79C391.849 2232.6 394.575 2240.1 394.575 2249.65C394.575 2259.87 391.168 2268.73 383.671 2276.23C376.175 2283.73 367.316 2287.82 357.775 2287.82C353.686 2287.82 347.553 2286.46 338.012 2283.73C333.924 2282.37 330.516 2281.69 329.153 2281C326.427 2280.32 325.064 2279.64 324.383 2279.64C323.701 2278.96 323.701 2277.6 323.02 2274.87C323.02 2272.14 321.657 2268.05 320.294 2262.6C318.25 2254.42 316.887 2249.65 316.887 2246.92C316.887 2244.19 317.568 2242.83 319.613 2242.83C320.294 2242.83 320.976 2243.51 321.657 2244.87C324.383 2255.1 329.835 2263.28 336.65 2270.78C344.146 2277.6 350.961 2281 359.138 2281C365.272 2281 370.723 2278.96 375.494 2274.19C380.264 2269.42 382.308 2264.64 382.308 2258.51C382.308 2253.74 380.946 2250.33 378.901 2246.92C376.175 2244.19 372.086 2240.78 365.953 2238.74L352.324 2232.6C339.375 2227.15 331.198 2221.7 326.427 2216.24C321.657 2211.47 319.613 2204.65 319.613 2195.79C319.613 2186.25 323.02 2178.07 329.153 2171.25C333.242 2163.75 341.42 2160.34 350.961 2160.34Z" fill="white"></path><path d="M514.515 2184.2V2251.01C514.515 2261.24 515.878 2268.05 518.604 2272.14C521.33 2276.23 526.781 2278.96 534.278 2278.96C536.322 2278.96 537.685 2280.32 537.685 2282.37C537.685 2283.73 537.004 2284.41 534.959 2284.41C534.278 2284.41 533.596 2284.41 532.915 2284.41H526.1L515.196 2283.73C514.515 2283.73 513.152 2283.73 511.789 2283.73C508.382 2283.73 504.974 2283.73 502.248 2283.73L482.485 2285.1C480.441 2285.1 479.078 2285.78 478.397 2285.78C476.352 2285.78 475.671 2285.09 475.671 2283.73C475.671 2282.37 476.352 2281.69 476.352 2281C477.034 2280.32 477.715 2280.32 479.76 2280.32C484.53 2280.32 487.937 2278.28 490.663 2275.55C493.389 2272.82 494.752 2268.05 494.752 2263.28V2259.19V2180.11C494.752 2175.34 492.026 2173.29 487.256 2173.29C475.671 2173.29 467.493 2173.98 462.723 2176.02C459.315 2177.38 457.271 2178.75 456.589 2180.11C455.226 2181.47 453.863 2185.57 452.5 2192.38L451.819 2195.11C451.138 2197.84 450.456 2198.52 449.093 2198.52C447.049 2198.52 446.367 2197.84 446.367 2195.79C446.367 2194.43 447.049 2191.7 447.049 2188.97L447.73 2181.47L449.093 2173.29L449.775 2167.84C449.775 2165.8 451.138 2164.43 453.182 2164.43C453.863 2164.43 454.545 2164.43 455.908 2164.43C457.952 2164.43 461.36 2164.43 465.449 2164.43H483.848H505.656C519.285 2164.43 534.278 2163.75 549.952 2163.07C553.359 2163.07 554.722 2163.07 556.085 2163.07C559.492 2163.07 560.855 2164.43 561.537 2167.16L562.218 2173.29C562.218 2173.98 562.9 2176.7 562.9 2180.79C563.581 2184.2 563.581 2186.25 563.581 2188.29C563.581 2190.34 562.9 2191.02 560.855 2191.02C559.492 2191.02 558.811 2189.66 558.129 2187.61C556.766 2182.16 554.722 2178.07 551.315 2175.34C547.907 2172.61 542.455 2171.93 536.322 2171.93C527.463 2171.93 522.011 2172.61 519.285 2173.98C515.878 2175.34 514.515 2178.75 514.515 2184.2Z" fill="white"></path><path d="M633.773 2160.34C652.173 2160.34 667.166 2165.8 678.751 2176.7C690.336 2187.61 695.788 2201.24 695.788 2218.97C695.788 2238.06 689.654 2254.42 678.069 2267.37C666.484 2280.32 650.81 2286.46 631.047 2286.46C611.966 2286.46 596.292 2281 585.388 2269.42C573.803 2258.51 568.352 2243.51 568.352 2224.42C568.352 2216.24 569.715 2208.06 572.44 2200.56C575.166 2192.38 579.255 2186.25 584.025 2180.79C589.477 2174.66 596.974 2169.2 605.833 2165.8C614.692 2161.71 624.233 2160.34 633.773 2160.34ZM627.64 2167.16C616.055 2167.16 606.514 2171.25 599.699 2180.11C592.885 2188.97 589.477 2201.24 589.477 2216.92C589.477 2235.33 593.566 2250.33 601.744 2261.92C609.922 2273.51 620.825 2279.64 634.455 2279.64C646.721 2279.64 656.262 2274.87 663.758 2265.33C671.255 2255.78 674.662 2242.83 674.662 2226.47C674.662 2216.92 673.299 2208.06 669.892 2199.2C666.484 2190.34 661.714 2183.52 656.262 2178.07C648.084 2170.57 638.544 2167.16 627.64 2167.16Z" fill="white"></path><path d="M723.728 2186.25C723.728 2180.79 722.365 2176.02 718.958 2173.29C715.551 2169.89 711.462 2168.52 705.328 2168.52C703.284 2168.52 702.603 2167.84 702.603 2166.48C702.603 2165.11 703.284 2164.43 703.966 2164.43C704.647 2164.43 706.691 2163.75 708.736 2163.75H722.365C725.773 2163.75 728.499 2163.75 730.543 2163.75C733.95 2163.75 739.402 2163.07 746.217 2162.39C755.076 2161.71 761.891 2161.02 767.343 2161.02C787.106 2161.02 803.461 2166.48 815.728 2176.7C827.994 2186.93 834.128 2200.56 834.128 2217.61C834.128 2239.42 825.95 2257.14 809.594 2270.1C797.328 2279.64 784.38 2284.41 769.387 2284.41C766.661 2284.41 761.891 2284.41 754.395 2283.73C750.306 2283.73 745.536 2283.05 741.447 2283.05C731.225 2283.05 723.728 2283.05 720.321 2283.73C717.595 2284.41 715.551 2284.41 714.869 2284.41C713.506 2284.41 712.825 2283.73 712.825 2281.69C712.825 2280.32 713.506 2279.64 714.869 2279.64C718.277 2278.96 721.002 2277.6 722.365 2274.87C723.728 2272.82 724.41 2268.73 724.41 2263.28V2186.25H723.728ZM744.173 2181.48V2259.19L745.536 2267.37C747.58 2274.19 755.076 2277.6 767.343 2277.6C780.972 2277.6 791.876 2272.82 800.054 2263.28C808.231 2253.74 812.32 2240.78 812.32 2225.1C812.32 2208.06 807.55 2194.43 798.009 2183.52C788.469 2172.61 776.202 2167.84 760.528 2167.84C754.395 2167.84 750.306 2168.52 747.58 2170.57C745.536 2171.25 744.173 2175.34 744.173 2181.48Z" fill="white"></path><path d="M912.497 2160.34C930.897 2160.34 945.889 2165.8 957.474 2176.7C969.06 2187.61 974.511 2201.24 974.511 2218.97C974.511 2238.06 968.378 2254.42 956.793 2267.37C945.208 2280.32 929.534 2286.46 909.771 2286.46C890.69 2286.46 875.016 2281 864.112 2269.42C852.527 2258.51 847.075 2243.51 847.075 2224.42C847.075 2216.24 848.438 2208.06 851.164 2200.56C853.89 2192.38 857.979 2186.25 862.749 2180.79C868.201 2174.66 875.697 2169.2 884.556 2165.8C893.416 2161.71 902.956 2160.34 912.497 2160.34ZM906.364 2167.16C894.779 2167.16 885.238 2171.25 878.423 2180.11C871.608 2188.97 868.201 2201.24 868.201 2216.92C868.201 2235.33 872.29 2250.33 880.468 2261.92C888.645 2273.51 899.549 2279.64 913.178 2279.64C925.445 2279.64 934.986 2274.87 942.482 2265.33C949.978 2255.78 953.386 2242.83 953.386 2226.47C953.386 2216.92 952.023 2208.06 948.615 2199.2C945.208 2190.34 940.437 2183.52 934.986 2178.07C926.808 2170.57 917.267 2167.16 906.364 2167.16Z" fill="white"></path><path d="M1003.13 2255.78C1005.18 2255.78 1007.22 2256.46 1009.95 2259.19C1014.04 2262.6 1016.08 2267.37 1016.08 2273.51C1016.08 2283.05 1011.99 2291.91 1004.5 2300.09C997.682 2306.91 992.912 2310.32 989.504 2310.32C988.823 2310.32 988.141 2309.64 988.141 2308.95C988.141 2308.27 988.823 2306.91 990.867 2305.55C993.593 2303.5 995.638 2300.77 997.001 2297.37C998.364 2293.96 999.727 2291.23 999.727 2287.82C999.727 2282.37 997.001 2278.28 991.549 2274.87C988.823 2272.82 987.46 2271.46 987.46 2270.1C987.46 2268.73 989.504 2266.01 993.593 2261.92C999.045 2258.51 1001.77 2256.46 1003.13 2255.78Z" fill="white"></path><path d="M1116.94 2182.84V2201.93C1116.94 2207.38 1117.62 2210.79 1118.3 2212.15C1118.99 2213.52 1121.03 2214.2 1124.44 2214.2H1127.16H1131.25H1138.75C1144.88 2214.2 1148.97 2210.79 1152.38 2204.65L1154.42 2200.56C1155.1 2199.2 1155.78 2199.2 1157.15 2199.2C1158.51 2199.2 1159.19 2199.88 1159.19 2201.93C1159.19 2202.61 1159.19 2203.97 1159.19 2206.02C1159.19 2207.38 1159.19 2208.74 1159.19 2210.11C1159.19 2212.15 1159.19 2216.24 1159.87 2223.74C1160.56 2228.51 1160.56 2232.6 1160.56 2235.33V2240.1C1160.56 2240.78 1160.56 2241.47 1160.56 2241.47C1160.56 2242.15 1159.87 2242.15 1159.19 2242.15C1157.83 2242.15 1156.47 2241.47 1156.47 2238.74C1155.78 2233.97 1153.74 2229.88 1151.01 2227.15C1149.65 2225.79 1147.61 2225.1 1145.56 2224.42C1143.52 2223.74 1139.43 2223.74 1133.3 2223.74H1127.16C1124.44 2223.74 1122.39 2224.42 1121.03 2225.1C1119.67 2225.79 1118.99 2227.83 1118.99 2230.56C1118.3 2233.28 1118.3 2238.06 1118.3 2244.87V2253.05C1118.3 2261.24 1118.99 2267.37 1120.35 2270.78C1121.03 2273.51 1122.39 2275.55 1123.76 2276.23C1125.12 2276.91 1127.16 2277.6 1129.89 2277.6C1153.74 2277.6 1169.41 2270.1 1176.91 2255.78C1177.59 2255.1 1177.59 2254.42 1178.27 2254.42C1178.96 2254.42 1179.64 2254.42 1179.64 2255.1C1180.32 2255.78 1180.32 2256.46 1180.32 2257.14C1180.32 2263.28 1178.96 2268.73 1175.55 2274.19C1172.82 2278.96 1169.41 2282.37 1166.01 2284.41C1161.92 2286.46 1157.15 2287.14 1150.33 2287.14C1146.24 2287.14 1142.16 2287.14 1138.07 2286.46L1127.84 2285.78C1123.76 2285.09 1118.99 2285.1 1112.17 2285.1C1108.08 2285.1 1101.27 2285.09 1092.41 2285.78C1089.68 2285.78 1088.32 2285.78 1086.96 2285.78C1085.59 2285.78 1084.91 2285.09 1084.91 2283.73C1084.91 2282.37 1085.59 2281.69 1086.96 2281C1090.36 2279.64 1092.41 2278.28 1093.77 2276.91C1095.13 2275.55 1095.81 2272.82 1096.5 2269.42C1097.18 2266.01 1097.18 2261.92 1097.18 2256.46V2186.25C1097.18 2179.43 1095.81 2175.34 1093.77 2172.61C1091.73 2170.57 1086.96 2168.52 1080.14 2167.84C1078.78 2167.84 1077.42 2166.48 1077.42 2165.11C1077.42 2163.75 1078.1 2163.07 1080.14 2163.07C1080.82 2163.07 1081.5 2163.07 1082.87 2163.07C1084.23 2163.07 1085.59 2163.07 1086.96 2163.07L1095.81 2163.75L1129.21 2164.43C1148.29 2164.43 1160.56 2164.43 1164.64 2163.75C1165.33 2163.75 1165.33 2163.75 1166.01 2163.75C1168.05 2163.75 1168.73 2164.43 1168.73 2166.48C1168.73 2167.84 1168.73 2170.57 1169.41 2173.98C1170.1 2179.43 1170.1 2182.84 1170.1 2184.88C1170.1 2189.66 1168.73 2191.7 1166.69 2191.7C1165.33 2191.7 1165.33 2190.34 1165.33 2187.61C1165.33 2181.47 1163.28 2177.38 1159.19 2174.66C1155.1 2171.93 1148.29 2170.57 1138.07 2170.57H1127.16L1121.03 2171.25C1118.3 2171.93 1116.26 2175.34 1116.26 2180.11L1116.94 2182.84Z" fill="white"></path><path d="M1221.89 2160.34C1227.34 2160.34 1232.79 2161.71 1238.24 2163.75L1244.38 2166.48C1247.1 2167.84 1249.15 2167.84 1249.83 2167.84C1250.51 2167.84 1251.19 2167.84 1252.55 2167.16L1255.96 2165.8C1256.64 2165.8 1256.64 2165.11 1257.32 2165.11C1258.69 2165.11 1259.37 2165.8 1259.37 2167.84V2175.34C1259.37 2176.7 1259.37 2177.38 1259.37 2178.75L1260.73 2187.61L1261.41 2195.79C1261.41 2196.47 1261.41 2197.15 1261.41 2197.84C1261.41 2200.56 1260.73 2201.93 1259.37 2201.93C1258.01 2201.93 1257.32 2200.56 1257.32 2198.52C1255.28 2190.34 1251.19 2182.84 1244.38 2177.38C1237.56 2171.25 1230.06 2168.52 1222.57 2168.52C1217.12 2168.52 1212.35 2170.57 1208.94 2173.98C1204.85 2177.38 1202.81 2182.16 1202.81 2186.93C1202.81 2191.7 1204.85 2195.11 1208.26 2198.52C1210.3 2200.56 1217.8 2203.97 1229.38 2208.74C1243.69 2214.2 1252.55 2220.33 1257.32 2225.79C1262.78 2232.6 1265.5 2240.1 1265.5 2249.65C1265.5 2259.87 1262.09 2268.73 1254.6 2276.23C1247.1 2283.73 1238.24 2287.82 1228.7 2287.82C1224.61 2287.82 1218.48 2286.46 1208.94 2283.73C1204.85 2282.37 1201.44 2281.69 1200.08 2281C1197.35 2280.32 1195.99 2279.64 1195.31 2279.64C1194.63 2278.96 1194.63 2277.6 1193.95 2274.87C1193.95 2272.14 1192.58 2268.05 1191.22 2262.6C1189.18 2254.42 1187.81 2249.65 1187.81 2246.92C1187.81 2244.19 1188.49 2242.83 1190.54 2242.83C1191.22 2242.83 1191.9 2243.51 1192.58 2244.87C1195.31 2255.1 1200.76 2263.28 1207.58 2270.78C1215.07 2277.6 1221.89 2281 1230.07 2281C1236.2 2281 1241.65 2278.96 1246.42 2274.19C1251.19 2269.42 1253.24 2264.64 1253.24 2258.51C1253.24 2253.74 1251.87 2250.33 1249.83 2246.92C1247.1 2244.19 1243.01 2240.78 1236.88 2238.74L1223.25 2232.6C1210.3 2227.15 1202.12 2221.7 1197.35 2216.24C1192.58 2211.47 1190.54 2204.65 1190.54 2195.79C1190.54 2186.25 1193.95 2178.07 1200.08 2171.25C1204.85 2163.75 1212.35 2160.34 1221.89 2160.34Z" fill="white"></path><path d="M1416.11 2161.71C1416.79 2161.71 1417.47 2161.71 1418.15 2161.71C1418.83 2161.71 1421.56 2162.39 1424.97 2162.39L1434.51 2163.07L1443.37 2162.39C1446.09 2162.39 1448.82 2161.71 1450.86 2161.71C1452.23 2161.71 1452.91 2161.71 1453.59 2161.71C1454.95 2161.71 1456.32 2162.39 1456.32 2163.75C1456.32 2165.11 1455.63 2165.8 1454.27 2165.8L1450.86 2166.48C1446.09 2167.16 1444.05 2171.93 1444.05 2181.47V2188.97V2199.88C1444.05 2216.92 1443.37 2230.56 1441.32 2241.47C1439.96 2251.69 1437.23 2259.87 1433.15 2266.01C1424.29 2279.64 1409.29 2286.46 1387.49 2286.46C1372.49 2286.46 1360.91 2283.73 1352.05 2278.28C1340.46 2270.78 1335.01 2255.78 1335.01 2233.29L1335.69 2199.2V2182.84C1335.69 2178.75 1335.01 2176.02 1334.33 2174.66C1333.65 2173.29 1331.61 2171.25 1329.56 2170.57C1326.84 2169.2 1323.43 2168.52 1320.02 2167.84C1317.98 2167.16 1316.61 2166.48 1316.61 2165.11C1316.61 2163.75 1317.29 2163.07 1319.34 2163.07C1320.02 2163.07 1321.38 2163.07 1322.75 2163.07C1330.24 2163.75 1336.38 2164.43 1339.78 2164.43C1345.24 2164.43 1352.05 2164.43 1358.86 2163.75C1361.59 2163.75 1363.64 2163.07 1365 2163.07C1368.41 2163.07 1369.77 2163.75 1369.77 2165.8C1369.77 2166.48 1369.77 2167.16 1369.09 2167.84C1368.41 2168.52 1367.72 2168.52 1365.68 2169.2C1362.27 2169.89 1359.55 2171.25 1358.18 2173.29C1356.82 2175.34 1356.14 2179.43 1356.14 2184.88L1354.78 2207.38V2223.06C1354.78 2237.38 1355.46 2247.6 1356.82 2253.74C1358.18 2259.87 1361.59 2265.33 1366.36 2269.42C1373.18 2276.23 1382.72 2278.96 1393.62 2278.96C1405.21 2278.96 1414.06 2275.55 1421.56 2268.73C1426.33 2263.96 1429.74 2257.83 1431.78 2248.96C1433.83 2240.1 1434.51 2227.83 1434.51 2211.47V2201.93L1433.83 2183.52C1433.15 2178.07 1431.78 2173.98 1428.38 2170.57C1424.97 2167.84 1420.88 2165.8 1416.11 2165.8C1414.06 2165.8 1412.7 2165.11 1412.7 2163.07C1414.06 2162.39 1414.75 2161.71 1416.11 2161.71ZM1399.75 2124.89C1400.43 2124.89 1401.12 2124.89 1401.8 2124.89C1404.52 2124.89 1407.25 2125.57 1409.29 2125.57C1412.7 2125.57 1414.06 2126.94 1414.06 2128.98C1414.06 2129.66 1414.06 2131.03 1413.38 2131.71C1412.7 2132.39 1410.66 2134.44 1407.25 2137.85L1399.07 2145.34L1394.98 2148.75C1393.62 2149.43 1392.26 2150.8 1390.89 2151.48C1388.17 2152.84 1386.12 2153.52 1385.44 2153.52C1384.08 2154.21 1383.4 2154.21 1382.04 2154.21C1380.67 2154.21 1379.99 2153.52 1379.99 2152.16C1379.99 2151.48 1380.67 2150.8 1381.35 2150.12C1382.04 2149.43 1382.72 2148.07 1384.08 2146.03L1392.94 2131.71L1395.66 2127.62C1397.71 2125.57 1398.39 2124.89 1399.75 2124.89Z" fill="white"></path><path d="M1514.24 2182.84L1561.26 2235.33L1563.99 2238.74C1568.08 2243.51 1570.8 2245.56 1572.17 2245.56C1573.53 2245.56 1574.21 2243.51 1574.21 2240.1C1574.89 2227.15 1574.89 2214.88 1574.89 2202.61C1574.89 2188.97 1573.53 2179.43 1570.8 2174.66C1568.08 2169.89 1562.63 2167.16 1554.45 2166.48C1552.4 2166.48 1551.72 2165.8 1551.72 2164.43C1551.72 2163.07 1552.4 2162.39 1554.45 2162.39C1556.49 2162.39 1559.9 2162.39 1564.67 2163.07C1568.08 2163.75 1570.12 2163.75 1572.17 2163.75C1576.26 2163.75 1583.07 2163.07 1591.93 2162.39C1593.29 2162.39 1593.97 2162.39 1594.66 2162.39C1596.7 2162.39 1597.38 2163.07 1597.38 2165.11C1597.38 2166.48 1596.7 2167.84 1594.66 2167.84C1587.16 2169.2 1583.07 2176.02 1583.07 2188.29V2192.38L1581.71 2247.6L1581.03 2255.1V2264.64V2271.46L1581.71 2282.37C1581.71 2283.73 1581.03 2285.1 1579.66 2285.1C1578.3 2285.1 1577.62 2284.41 1576.26 2283.05L1495.84 2193.06C1494.48 2191.7 1493.12 2191.02 1493.12 2191.02C1491.75 2191.02 1491.07 2192.38 1491.07 2195.11V2197.84V2231.92C1491.07 2250.33 1491.75 2262.6 1493.8 2268.73C1495.84 2275.55 1501.29 2278.96 1510.83 2280.32C1512.88 2280.32 1513.56 2281 1513.56 2282.37C1513.56 2284.41 1512.88 2285.1 1510.83 2285.1C1510.15 2285.1 1508.79 2285.1 1507.43 2284.41C1502.66 2283.73 1497.2 2283.05 1491.07 2283.05C1484.94 2283.05 1479.49 2283.73 1475.4 2284.41C1473.35 2284.41 1471.99 2285.1 1470.63 2285.1C1469.26 2285.1 1467.9 2284.41 1467.9 2283.05C1467.9 2281.69 1468.58 2281 1470.63 2280.32C1474.72 2278.96 1478.12 2276.23 1480.17 2272.82C1482.21 2268.73 1482.89 2263.28 1482.89 2256.46L1483.57 2235.33V2197.15C1483.57 2178.75 1476.76 2169.2 1463.13 2168.52C1461.09 2168.52 1460.4 2167.84 1460.4 2166.48C1460.4 2165.11 1461.09 2163.75 1463.13 2163.75H1469.26H1472.67C1477.44 2163.75 1482.21 2163.75 1487.66 2163.07C1489.71 2163.07 1491.07 2163.07 1492.43 2163.07C1494.48 2163.07 1495.84 2163.75 1496.52 2164.43C1497.89 2165.11 1499.93 2167.84 1503.34 2171.93L1509.47 2179.43C1512.2 2180.79 1513.56 2182.16 1514.24 2182.84Z" fill="white"></path><path d="M1641.68 2256.46L1642.36 2265.33C1643.04 2270.1 1645.09 2273.51 1647.81 2275.55C1650.54 2278.28 1653.94 2278.96 1658.71 2278.96C1661.44 2278.96 1662.8 2279.64 1662.8 2281.69C1662.8 2283.73 1660.76 2284.41 1657.35 2284.41C1655.99 2284.41 1653.26 2284.41 1650.54 2283.73C1643.04 2283.05 1636.91 2282.37 1632.14 2282.37C1626 2282.37 1621.23 2282.37 1617.83 2283.05C1615.1 2283.73 1613.06 2283.73 1611.69 2283.73C1610.33 2283.73 1609.65 2283.05 1608.97 2281.69V2281L1611.69 2278.96C1615.78 2277.6 1618.51 2275.55 1619.87 2273.51C1621.23 2271.46 1621.92 2267.37 1621.92 2262.6V2254.42V2183.52C1621.92 2178.07 1621.23 2173.98 1619.19 2171.93C1617.14 2169.89 1613.74 2167.84 1608.97 2167.16C1606.24 2166.48 1604.2 2166.48 1602.83 2165.8C1602.15 2165.11 1601.47 2164.43 1601.47 2163.75C1601.47 2162.39 1602.15 2161.02 1603.52 2161.02C1604.88 2161.02 1606.24 2161.02 1608.29 2161.71C1610.33 2162.39 1613.74 2162.39 1619.19 2162.39C1622.6 2162.39 1626.69 2162.39 1631.46 2161.71L1638.27 2161.02C1644.4 2160.34 1649.17 2160.34 1652.58 2160.34C1654.63 2160.34 1655.31 2161.02 1655.31 2162.39C1655.31 2163.75 1655.31 2164.43 1654.63 2164.43C1654.63 2165.11 1653.26 2165.11 1652.58 2165.11C1648.49 2165.8 1645.77 2167.16 1644.4 2168.52C1643.04 2169.89 1642.36 2173.29 1642.36 2178.75V2256.46H1641.68Z" fill="white"></path><path d="M1731.63 2160.34C1742.54 2160.34 1752.08 2162.39 1760.25 2167.16L1766.39 2170.57C1767.75 2171.25 1768.43 2171.93 1769.8 2171.93C1771.16 2171.93 1771.84 2171.25 1772.52 2170.57L1774.57 2167.84C1774.57 2167.16 1775.25 2167.16 1775.93 2167.16C1777.97 2167.16 1778.65 2169.2 1778.65 2172.61V2179.43V2187.61L1779.34 2194.43L1780.02 2198.52C1780.7 2200.56 1780.7 2201.93 1780.7 2203.97C1780.7 2206.02 1780.02 2207.38 1777.97 2207.38C1777.29 2207.38 1776.61 2206.7 1775.93 2205.33C1775.25 2203.29 1773.88 2199.88 1771.16 2195.11C1768.43 2190.34 1765.71 2186.93 1762.98 2184.2C1752.76 2173.29 1741.17 2167.84 1728.91 2167.84C1718 2167.84 1708.46 2172.61 1701.65 2181.47C1694.83 2190.34 1691.43 2202.61 1691.43 2216.92C1691.43 2236.01 1696.88 2251.01 1708.46 2262.6C1717.32 2270.78 1726.18 2275.55 1736.4 2275.55C1742.54 2275.55 1748.67 2274.19 1755.48 2271.46C1762.3 2268.73 1767.75 2265.33 1771.16 2260.55L1776.61 2254.42C1777.29 2253.74 1777.97 2253.05 1779.34 2253.05C1780.7 2253.05 1780.7 2253.74 1780.7 2255.1C1780.7 2257.83 1778.65 2261.24 1773.88 2266.69C1761.62 2280.32 1746.63 2287.14 1728.23 2287.14C1710.51 2287.14 1696.88 2281.69 1685.97 2270.78C1675.07 2259.87 1669.62 2244.87 1669.62 2227.15C1669.62 2217.61 1671.66 2208.06 1675.75 2198.52C1679.84 2188.97 1685.29 2181.47 1692.11 2176.02C1703.69 2165.11 1716.64 2160.34 1731.63 2160.34Z" fill="white"></path><path d="M1858.39 2160.34C1876.79 2160.34 1891.78 2165.8 1903.36 2176.7C1914.95 2187.61 1920.4 2201.24 1920.4 2218.97C1920.4 2238.06 1914.27 2254.42 1902.68 2267.37C1891.1 2280.32 1875.42 2286.46 1855.66 2286.46C1836.58 2286.46 1820.91 2281 1810 2269.42C1798.42 2258.51 1792.96 2243.51 1792.96 2224.42C1792.96 2216.24 1794.33 2208.06 1797.05 2200.56C1799.78 2192.38 1803.87 2186.25 1808.64 2180.79C1814.09 2174.66 1821.59 2169.2 1830.45 2165.8C1839.31 2161.71 1848.16 2160.34 1858.39 2160.34ZM1852.25 2167.16C1840.67 2167.16 1831.13 2171.25 1824.31 2180.11C1817.5 2188.97 1814.09 2201.24 1814.09 2216.92C1814.09 2235.33 1818.18 2250.33 1826.36 2261.92C1834.53 2273.51 1845.44 2279.64 1859.07 2279.64C1871.33 2279.64 1880.88 2274.87 1888.37 2265.33C1895.87 2255.78 1899.28 2242.83 1899.28 2226.47C1899.28 2216.92 1897.91 2208.06 1894.5 2199.2C1891.1 2190.34 1886.33 2183.52 1880.88 2178.07C1872.7 2170.57 1863.16 2167.16 1852.25 2167.16Z" fill="white"></path><path d="M1950.39 2255.78C1951.75 2255.78 1953.79 2257.14 1956.52 2259.87L1961.97 2265.33L1965.38 2268.73C1966.06 2269.42 1966.06 2270.1 1966.06 2271.46C1966.06 2272.82 1964.7 2274.87 1961.97 2276.91C1960.61 2278.28 1959.25 2279.64 1957.2 2281.69C1954.48 2285.09 1952.43 2286.46 1951.07 2286.46C1949.7 2286.46 1948.34 2285.09 1946.3 2283.05C1943.57 2280.32 1941.53 2278.28 1940.16 2276.91C1937.44 2274.19 1936.08 2272.14 1936.08 2270.78C1936.08 2269.42 1937.44 2267.37 1940.16 2265.33C1941.53 2263.96 1943.57 2262.6 1945.62 2259.87C1946.98 2257.14 1949.02 2255.78 1950.39 2255.78Z" fill="white"></path></svg>