<svg viewBox="0 0 392.86 82.98" xmlns="http://www.w3.org/2000/svg"><g fill="#221d20"><path d="m106.66 2.07h-25.05v27.73h-27.53v-27.73h-26.15v27.73h-27.93v25.22h27.93v27.96h26.15v-28.13h26.44v28.13h16.76l9.38-24.61z"/><path d="m131.33 2.07-24.67 65.5-5.8 15.41h28.82l3.52-10.9h30.67l3.65 10.9h29.36l-30.47-80.91zm8.75 49.25 8.51-28.92 8.87 28.92z"/><path d="m228.54 36.51c0 1.27.58 1.91 1.74 1.91h.62c.64 0 1.1-.16 1.4-.48s.45-.79.45-1.43v-32.81c0-.64-.15-1.11-.45-1.43s-.77-.48-1.4-.48h-.62c-1.16 0-1.74.64-1.74 1.91v14.53h-21.31v-14.53c0-1.27-.62-1.91-1.85-1.91h-.62c-1.16 0-1.74.64-1.74 1.91v32.81c0 1.27.58 1.91 1.74 1.91h.62c1.23 0 1.85-.64 1.85-1.91v-14.58h21.31z"/><path d="m264.3 32.14c1.18-2.09 1.77-4.49 1.77-7.18s-.59-5.1-1.77-7.23-2.8-3.8-4.85-5.02c-2.06-1.22-4.43-1.82-7.12-1.82s-5.08.61-7.18 1.82c-2.09 1.21-3.73 2.87-4.91 4.96s-1.77 4.49-1.77 7.18.59 5.09 1.77 7.21c1.18 2.11 2.8 3.78 4.88 4.99 2.07 1.21 4.46 1.82 7.15 1.82s5.08-.6 7.15-1.8c2.08-1.2 3.7-2.84 4.88-4.94zm-6.87 1.99c-1.5.92-3.2 1.37-5.1 1.37s-3.67-.46-5.19-1.37c-1.51-.92-2.7-2.19-3.56-3.81-.86-1.63-1.29-3.45-1.29-5.47s.43-3.82 1.29-5.41 2.05-2.85 3.56-3.79c1.51-.93 3.23-1.4 5.13-1.4s3.66.48 5.16 1.43 2.67 2.23 3.53 3.84 1.29 3.42 1.29 5.44-.43 3.82-1.29 5.41-2.04 2.84-3.53 3.76z"/><path d="m287.69 25.21c-.99-.54-2.06-.97-3.2-1.29s-2.25-.59-3.34-.81c-1.53-.34-2.85-.66-3.95-.98s-1.95-.76-2.55-1.32-.9-1.35-.9-2.36c0-1.27.58-2.32 1.74-3.14s2.79-1.23 4.88-1.23c1.23 0 2.36.17 3.36.5 1.01.34 1.92.8 2.72 1.37.8.58 1.47 1.26 1.99 2.05.04.04.21 0 .5-.14.3-.13.59-.35.87-.67s.42-.7.42-1.15c0-.3-.07-.63-.22-.98s-.36-.68-.62-.98c-.71-.86-1.82-1.61-3.34-2.24-1.51-.64-3.43-.95-5.75-.95-2.1 0-3.92.35-5.47 1.04s-2.75 1.64-3.59 2.83c-.84 1.2-1.26 2.6-1.26 4.21 0 1.35.29 2.46.87 3.34s1.35 1.58 2.3 2.1 1.97.94 3.06 1.23c1.08.3 2.15.56 3.2.78 1.57.3 2.92.63 4.07.98 1.14.36 2.03.81 2.66 1.37.64.56.95 1.38.95 2.47 0 1.35-.6 2.43-1.79 3.25-1.2.82-2.9 1.23-5.1 1.23s-4.12-.41-5.64-1.23c-1.51-.82-2.7-1.85-3.56-3.09-.04-.04-.22.02-.53.17-.32.15-.61.36-.87.64s-.39.66-.39 1.15c0 .41.13.84.39 1.29s.69.94 1.29 1.46c.86.75 2.08 1.39 3.65 1.93s3.46.81 5.66.81c3.33 0 5.95-.75 7.88-2.24s2.89-3.46 2.89-5.89c0-1.35-.3-2.47-.9-3.36-.6-.9-1.39-1.62-2.38-2.16z"/><path d="m297.47 49.13h.45c.52 0 .95-.13 1.29-.39s.5-.77.5-1.51v-13.85c.49.94 1.18 1.82 2.08 2.66s2 1.52 3.31 2.05c1.31.52 2.78.79 4.43.79 2.5 0 4.71-.59 6.62-1.77s3.41-2.82 4.51-4.94c1.1-2.11 1.65-4.55 1.65-7.32s-.55-5.25-1.65-7.35c-1.1-2.09-2.61-3.72-4.51-4.88-1.91-1.16-4.06-1.74-6.45-1.74-1.53 0-2.94.23-4.21.7s-2.39 1.12-3.37 1.96c-.95.82-1.77 1.8-2.47 2.92 0-.27-.01-.56-.02-.88-.02-.56-.05-1.03-.08-1.4-.04-.79-.18-1.38-.42-1.8-.24-.41-.54-.7-.9-.87s-.72-.25-1.09-.25c-.41 0-.76.07-1.04.2s-.42.22-.42.25v35.5c0 .75.17 1.25.5 1.51.34.26.77.39 1.29.39zm2.19-28.38c.78-1.94 1.97-3.51 3.56-4.68s3.54-1.77 5.86-1.77c1.76 0 3.35.46 4.77 1.37 1.42.92 2.53 2.16 3.34 3.73.8 1.57 1.21 3.38 1.21 5.44s-.39 3.94-1.18 5.55-1.89 2.86-3.31 3.76-3.07 1.35-4.94 1.35c-1.72 0-3.28-.39-4.68-1.18s-2.52-1.84-3.36-3.17-1.26-2.81-1.26-4.46v-5.95z"/><path d="m330 11.27h-.45c-.52 0-.95.14-1.29.42s-.5.8-.5 1.54v23.28c0 .75.17 1.25.5 1.51.34.26.77.39 1.29.39h.45c.52 0 .94-.13 1.26-.39s.48-.77.48-1.51v-23.27c0-.78-.16-1.31-.48-1.57s-.74-.39-1.26-.39z"/><path d="m329.78 5.55c.82 0 1.46-.22 1.91-.67s.67-1.07.67-1.85-.22-1.46-.65-1.91-1.06-.67-1.88-.67-1.46.22-1.91.67-.67 1.09-.67 1.91.21 1.4.64 1.85 1.06.67 1.88.67z"/><path d="m341 14.92v15.42c0 1.91.26 3.5.79 4.77.52 1.27 1.35 2.22 2.47 2.83 1.12.62 2.52.93 4.21.93 1.12 0 2.08-.15 2.86-.45.79-.3 1.4-.67 1.85-1.12.37-.34.64-.68.81-1.04.17-.35.25-.7.25-1.04 0-.45-.09-.81-.28-1.09s-.37-.48-.56-.59-.32-.15-.39-.11c-.41.64-.96 1.15-1.65 1.54s-1.51.59-2.44.59c-1.42 0-2.45-.46-3.08-1.37-.64-.92-.95-2.35-.95-4.29v-14.97h6.96c.67 0 1.15-.13 1.43-.39s.42-.65.42-1.18v-.34c0-.49-.13-.86-.39-1.12s-.73-.39-1.4-.39h-6.95v-4.65c0-.79-.16-1.31-.48-1.57s-.74-.39-1.26-.39h-.45c-.52 0-.94.14-1.26.42s-.48.8-.48 1.54v4.65h-2.69c-.64 0-1.09.13-1.37.39s-.42.65-.42 1.18v.34c0 .49.14.86.42 1.12s.74.39 1.37.39h2.69z"/><path d="m373.78 36.32c1.03-.8 1.84-1.73 2.44-2.78 0 .41.02.81.06 1.21.04.39.06.78.06 1.15.11.97.39 1.65.84 2.02s.97.56 1.57.56c.37 0 .7-.05.98-.14s.42-.2.42-.31v-16.6c0-2.21-.43-4.09-1.29-5.66s-2.12-2.78-3.79-3.62c-1.66-.84-3.67-1.26-6.03-1.26s-4.21.33-5.78.98-2.8 1.41-3.7 2.27c-.52.49-.93 1-1.21 1.54s-.42 1.02-.42 1.43c0 .37.07.69.22.95s.35.47.59.62.49.26.73.34.51.13.81.17c.71-1.35 1.76-2.5 3.14-3.45s3.16-1.43 5.33-1.43c2.36 0 4.19.63 5.5 1.88s1.96 3.02 1.96 5.3v1.01h-.67c-4.26.04-7.77.37-10.52 1.01s-4.8 1.59-6.14 2.86c-1.35 1.27-2.02 2.94-2.02 4.99 0 2.24.82 4.05 2.47 5.41 1.65 1.37 3.89 2.05 6.73 2.05 1.53 0 2.94-.22 4.23-.64 1.29-.43 2.45-1.05 3.48-1.85zm-11.33-1.74c-1.07-.8-1.6-1.92-1.6-3.34 0-1.35.5-2.45 1.51-3.31s2.57-1.5 4.68-1.93 4.8-.68 8.05-.76h1.12v2.36c0 1.57-.41 2.97-1.23 4.21-.82 1.23-1.94 2.21-3.37 2.92-1.42.71-3.03 1.07-4.82 1.07s-3.28-.4-4.35-1.21z"/><path d="m389.12 38.42h.45c.52 0 .94-.13 1.26-.39s.48-.77.48-1.51v-32.93c0-.97-.12-1.71-.36-2.22-.24-.5-.56-.86-.95-1.07-.39-.21-.81-.31-1.26-.31-.37 0-.7.06-.98.17s-.42.21-.42.28v36.06c0 .75.17 1.25.5 1.51.34.26.77.39 1.29.39z"/><path d="m232.74 45.97c-.11-.3-.29-.56-.51-.77-.23-.21-.54-.37-.94-.48s-.94-.17-1.62-.17c-.61 0-1.12.06-1.54.17s-.73.28-.94.48c-.21.21-.37.46-.48.77l-13.6 34.65c0 .08.09.21.26.4s.43.37.77.54.7.26 1.08.26c.49.04.98-.08 1.45-.34s.86-.8 1.17-1.59l3.98-10.07h15.65l3.98 10.07c.19.53.44.94.74 1.22.3.29.63.48.97.6.34.11.66.15.97.11.46 0 .84-.08 1.17-.23.32-.15.6-.33.83-.54s.3-.35.23-.43l-13.6-34.65zm-9.78 20.32 6.66-17.24 6.66 17.24h-13.31z"/><path d="m253.65 43.16c-.4-.21-.83-.31-1.28-.31-.38 0-.71.06-1 .17s-.43.21-.43.29v36.59c0 .76.17 1.27.51 1.54.34.26.78.4 1.31.4h.46c.53 0 .96-.13 1.28-.4s.48-.78.48-1.54v-33.4c0-.99-.12-1.74-.37-2.25s-.57-.87-.97-1.08z"/><path d="m280.82 55.59c-1.9-1.14-4.14-1.71-6.71-1.71s-4.96.63-7.03 1.88-3.69 2.96-4.86 5.12c-1.18 2.16-1.76 4.61-1.76 7.34s.59 5.16 1.76 7.28c1.17 2.13 2.82 3.78 4.92 4.98 2.1 1.19 4.56 1.79 7.37 1.79 2.12 0 3.94-.28 5.46-.85s2.73-1.21 3.64-1.93c.8-.64 1.38-1.27 1.76-1.88s.57-1.12.57-1.54c0-.46-.11-.83-.31-1.14-.21-.3-.46-.53-.74-.68-.29-.15-.54-.26-.77-.31-.23-.06-.36-.07-.4-.03-.46.87-1.06 1.69-1.82 2.45s-1.74 1.38-2.93 1.85c-1.2.47-2.67.71-4.41.71-1.86 0-3.52-.38-4.98-1.14s-2.65-1.82-3.56-3.19-1.48-2.96-1.71-4.78c0-.15 0-.29-.03-.43-.02-.13-.03-.27-.03-.43h21.17c.49 0 .85-.09 1.08-.26s.34-.5.34-1v-.4c0-2.65-.53-4.99-1.59-7s-2.54-3.58-4.44-4.72zm-16.44 10.35c.26-1.71.84-3.22 1.74-4.55.89-1.33 2.02-2.36 3.39-3.1s2.9-1.11 4.61-1.11 3.19.36 4.44 1.08 2.26 1.74 3.02 3.07 1.18 2.86 1.25 4.61h-18.44z"/><path d="m330.81 56.9c-.85-.99-1.93-1.74-3.21-2.25-1.29-.51-2.79-.77-4.49-.77-2.31 0-4.29.57-5.92 1.71s-2.88 2.6-3.75 4.38c-.46-1.25-1.1-2.33-1.93-3.24-.84-.91-1.86-1.61-3.07-2.1s-2.58-.74-4.1-.74c-1.9 0-3.6.47-5.12 1.42s-2.73 2.16-3.64 3.64v-1.25c-.08-1.4-.37-2.32-.88-2.76s-1.07-.65-1.68-.65c-.42 0-.77.07-1.05.2s-.43.22-.43.26v25.15c0 .76.17 1.27.51 1.54.34.26.78.4 1.31.4h.46c.53 0 .97-.13 1.31-.4s.51-.78.51-1.54v-16.9c.49-1.1 1.15-2.06 1.96-2.87s1.73-1.44 2.73-1.88 2.06-.65 3.16-.65c1.55 0 2.85.3 3.87.91s1.79 1.51 2.3 2.7c.51 1.2.77 2.65.77 4.35v14.34c0 .76.18 1.27.54 1.54.36.26.79.4 1.28.4h.46c.53 0 .97-.13 1.31-.4s.51-.78.51-1.54v-16.84c.49-1.14 1.14-2.11 1.93-2.93.8-.81 1.71-1.44 2.73-1.88s2.09-.65 3.19-.65c2.28 0 4.01.7 5.21 2.11 1.2 1.4 1.79 3.43 1.79 6.09v14.11c0 .76.17 1.27.51 1.54.34.26.78.4 1.31.4h.46c.53 0 .96-.13 1.28-.4s.48-.78.48-1.54v-14.51c0-1.82-.22-3.44-.65-4.87-.44-1.42-1.08-2.63-1.93-3.61z"/><path d="m350.93 46.17c-.61.7-1.16 1.4-1.66 2.12-.5.71-.9 1.33-1.21 1.84-.3.52-.45.81-.45.87 0 .03 0 .05.02.07.01.02.05.03.09.05.05.02.08.02.11.02.09 0 .42-.12.98-.36s1.24-.57 2.05-.98c.8-.41 1.59-.86 2.37-1.37.77-.5 1.42-1.03 1.93-1.59.52-.56.77-1.11.77-1.66 0-.39-.13-.74-.39-1.02-.26-.29-.6-.43-1.02-.43-.52 0-1.09.24-1.73.71s-1.26 1.06-1.87 1.75z"/><path d="m356.41 55.16c-1.69-.85-3.73-1.28-6.12-1.28s-4.27.33-5.86 1c-1.59.66-2.85 1.43-3.76 2.3-.53.49-.94 1.01-1.22 1.56s-.43 1.03-.43 1.45c0 .38.08.7.23.97s.35.47.6.63c.25.15.49.27.74.34.25.08.52.13.83.17.72-1.37 1.78-2.53 3.19-3.5 1.4-.97 3.21-1.45 5.41-1.45 2.39 0 4.25.64 5.58 1.91s1.99 3.06 1.99 5.38v1.02h-.68c-4.32.04-7.88.38-10.67 1.02-2.79.65-4.87 1.61-6.23 2.9-1.37 1.29-2.05 2.98-2.05 5.06 0 2.28.83 4.11 2.5 5.49 1.67 1.39 3.94 2.08 6.83 2.08 1.55 0 2.99-.22 4.3-.65 1.31-.44 2.48-1.06 3.53-1.88 1.04-.82 1.87-1.75 2.47-2.82 0 .42.02.82.06 1.22s.06.79.06 1.17c.11.99.4 1.67.85 2.05s.99.57 1.59.57c.38 0 .71-.05 1-.14.28-.09.43-.2.43-.31v-16.84c0-2.24-.44-4.15-1.31-5.75-.87-1.59-2.15-2.82-3.84-3.67zm1.17 15.68c0 1.59-.42 3.02-1.25 4.27s-1.97 2.24-3.41 2.96-3.07 1.08-4.89 1.08-3.33-.41-4.41-1.22c-1.08-.82-1.62-1.94-1.62-3.39 0-1.37.51-2.48 1.54-3.36 1.02-.87 2.61-1.53 4.75-1.96 2.14-.44 4.86-.69 8.16-.77h1.14v2.39z"/><path d="m391.69 59.57c-.78-1.78-1.95-3.18-3.53-4.18-1.57-1-3.58-1.51-6-1.51-2.16 0-4.05.5-5.66 1.51-1.55.97-2.79 2.22-3.73 3.73v-1.31c-.04-1.44-.32-2.39-.85-2.84-.53-.46-1.1-.68-1.71-.68-.42 0-.77.07-1.05.2s-.43.22-.43.26v25.15c0 .76.17 1.27.51 1.54.34.26.78.4 1.31.4h.46c.53 0 .97-.13 1.31-.4s.51-.78.51-1.54v-16.73c.76-1.67 1.89-3.02 3.39-4.04s3.25-1.54 5.26-1.54c2.35 0 4.16.77 5.43 2.3 1.27 1.54 1.91 3.63 1.91 6.29v13.71c0 .76.17 1.27.51 1.54.34.26.78.4 1.31.4h.4c.53 0 .97-.13 1.31-.4s.51-.78.51-1.54v-14.11c0-2.35-.39-4.42-1.17-6.2z"/></g></svg>