<svg xmlns="http://www.w3.org/2000/svg" viewBox="0 0 719.16 178.87"><title>Asset 1</title><g id="Layer_2" data-name="Layer 2"><g id="Layer_1-2" data-name="Layer 1"><path d="M119.44,123.67V49.29h13.22l32.08,37.22,32.15-37.22h13.22V123.1a9.29,9.29,0,0,1-9.3,9.29H187.45l-.14-43.69-22.57,25.08L142,88.33v44.06h-13.8a8.71,8.71,0,0,1-8.72-8.72" style="fill:#1d2b4f"/><path d="M217.21,89.56q0-17.81,11.33-29.14t29.14-11.33q17.81,0,28.32,11.33t10.53,29.14v8.09H240.68a14.29,14.29,0,0,0,5.67,10.12,18.39,18.39,0,0,0,11.33,3.64,33.52,33.52,0,0,0,20.23-6.48l12.95,12.95Q282,130,257.68,130q-17.81,0-29.14-11.33T217.21,89.56M269,71.35a19.41,19.41,0,0,0-22.66,0,11.92,11.92,0,0,0-4.86,10.11h32.37A11.91,11.91,0,0,0,269,71.35" style="fill:#1d2b4f"/><path d="M384.18,58a28.37,28.37,0,0,1,21.13-8.9,41.21,41.21,0,0,1,7.52.65l-3.56,22.33q-4-3.55-11.33-3.8-8.25.57-13.76,12V130H361.52V60.6a10.2,10.2,0,0,1,9.11-10.14L384.18,49Z" style="fill:#1d2b4f"/><path d="M424.4,119q-11.81-11.85-11.81-29.41T424.4,60.1q11.82-11.82,29.47-11.82T483.33,60.1q11.81,11.81,11.81,29.46T483.33,119q-11.82,11.8-29.46,11.81T424.4,119m29.38-7.72q9.24,0,15-6.19a21.81,21.81,0,0,0,5.74-15.42,21.94,21.94,0,0,0-5.74-15.46Q463,67.94,453.7,68a19.31,19.31,0,0,0-14.89,6.23,22,22,0,0,0-5.75,15.46,21.82,21.82,0,0,0,5.75,15.42q5.74,6.18,15,6.19" style="fill:#1d2b4f"/><path d="M500.57,164V59.7a9.2,9.2,0,0,1,8.21-9.15L523.23,49v6.47Q532.29,49,541,49q18.62,0,29.55,12.14A41,41,0,0,1,581.5,89.47a41,41,0,0,1-10.92,28.33Q559.65,130,541,129.94q-12.13-.81-17.8-6.55v31.06a9.62,9.62,0,0,1-9.65,9.61Zm22.66-81.83V95.3q1.62,13.61,17,16,19.42-1.55,21.86-20.16-.81-22.65-21.86-23.47-15.37,2.43-17,14.57" style="fill:#1d2b4f"/><path d="M597.68,119q-11.82-11.85-11.81-29.41T597.68,60.1q11.82-11.82,29.46-11.82T656.6,60.1q11.82,11.81,11.82,29.46T656.6,119q-11.8,11.8-29.46,11.81T597.68,119m29.38-7.72q9.23,0,15-6.19a21.81,21.81,0,0,0,5.74-15.42A21.94,21.94,0,0,0,642,74.18Q636.3,67.94,627,68a19.3,19.3,0,0,0-14.89,6.23,22,22,0,0,0-5.75,15.46,21.82,21.82,0,0,0,5.75,15.42q5.74,6.18,15,6.19" style="fill:#1d2b4f"/><path d="M349.39,110a39.56,39.56,0,0,1-6.07,1,9.61,9.61,0,0,1-7-2.63q-2.71-2.62-2.71-9.1V67.46h12.14V49.17H333.59V36.73H320.11A9.25,9.25,0,0,0,310.86,46v3.19H298.72V67.46h12.14v35.05q0,12.13,8.1,19.83T340.81,130a23.82,23.82,0,0,0,13.35-3.8Z" style="fill:#1d2b4f"/><path d="M714.39,110a39.56,39.56,0,0,1-6.07,1,9.59,9.59,0,0,1-7-2.63q-2.72-2.62-2.72-9.1V36.73H685.11A9.25,9.25,0,0,0,675.86,46v56.53q0,12.13,8.09,19.83T705.81,130a23.84,23.84,0,0,0,13.35-3.8Z" style="fill:#1d2b4f"/><path d="M3.09,94.61s-18.32,55.06,34.31,63.32c0,0,7.35-15.69-22.36-38.72,0,0,53,21.45,15.57,58.42l-1.2,1.24s39.37-23.61,15-53.52c0,0-3.34-6.4-19.49-13,0,0-12.31-4.07-21.85-17.7" style="fill:#228135"/><path d="M81.75,104.33S48.05,106,55.59,130.08c0,0,3-14.12,16.1-20a32.4,32.4,0,0,0-12.36,22.28S80,136.7,81.75,104.33" style="fill:#228135"/><path d="M36.84,9.23A96.66,96.66,0,0,0,24.56,1.59a75.68,75.68,0,0,0-8.08,13.48,90,90,0,0,1,10.43,2.37,101.75,101.75,0,0,1,9.93-8.21" style="fill:#e30613"/><path d="M67.81,42.51a39.22,39.22,0,0,1,2.81,3.14A39.61,39.61,0,0,1,76.92,57V39.82c0-5.83,1.46-14,4.23-19.59C79,20.11,76,20,75.38,20a84.18,84.18,0,0,0-29.54,5.34,90.64,90.64,0,0,1,22,17.17" style="fill:#e30613"/><path d="M66.59,18.16A115.11,115.11,0,0,0,59.94,0C47.82,3.71,37.55,10.79,29.42,18.2a90.53,90.53,0,0,1,13.77,5.7,86.87,86.87,0,0,1,23.4-5.74" style="fill:#e30613"/><path d="M67.66,45.74h0a36.48,36.48,0,0,0-2.72-2.69A84.16,84.16,0,0,0,7,20c-.64,0-3.63.12-5.77.24C4,25.79,5.42,34,5.42,39.82V69.76a35.76,35.76,0,1,0,62.24-24" style="fill:#e30613"/></g></g></svg>