<svg xmlns="http://www.w3.org/2000/svg" width="256" height="90" viewBox="0 0 256 90" fill="none"><path d="M188.682 22.9444C185.402 20.2421 180.974 19.1034 175.213 18.6871C181.11 10.8097 188.741 4.69993 200.272 0.374634L206.399 11.9654C198.53 14.8291 192.973 18.2877 188.673 22.9444H188.682ZM169.604 27.5671C166.928 32.5127 164.54 37.9767 162.11 43.959C160.096 48.4118 157.47 54.1732 154.929 58.8469C150.927 67.8374 143.304 73.8623 131.289 78.23L137.441 89.8633C159.237 81.6886 167.132 67.1491 175.604 46.2789C177.456 42.2 179.912 36.889 182.172 32.5467C181.96 31.8159 181.697 31.2041 181.357 30.7282C179.861 28.6463 177.091 27.6351 169.596 27.5671H169.604Z" fill="#EF2AC1"></path><path d="M131.025 19.1034H119.426V71.2364H131.025V19.1034Z" fill="#001689"></path><path d="M66.8424 19.1034H55.2432V71.2364H66.8424V19.1034Z" fill="#001689"></path><path d="M252.236 25.7741C247.876 20.3016 239.166 19.1799 228.561 19.1799C215.883 19.1799 205.974 23.1908 205.872 23.2333V71.245H218.219V30.4563C218.219 29.785 218.678 29.1987 219.333 29.0457C221.593 28.5188 224.465 28.2639 228.57 28.2639C236.736 28.2639 240.5 29.2751 242.055 31.4335C243.653 33.6599 243.653 38.7755 243.653 45.8455V71.2365H256V45.8455C256 36.923 256 30.4818 252.244 25.7656" fill="#001689"></path><path d="M27.4304 62.6794C19.2642 62.6794 14.7434 61.6681 13.1883 59.5097C11.5908 57.2833 11.5908 52.1678 11.5908 45.0977C11.5908 38.0277 11.5908 32.9121 13.1883 30.6857C14.7434 28.5188 19.2981 27.5161 27.4304 27.5161L42.0633 27.7625V19.4518C39.0127 18.925 31.8237 18.4321 27.4304 18.4321C16.8338 18.4321 8.11525 19.5538 3.75596 25.0263C0 29.7255 0 36.1752 0 45.0892C0 54.0033 0 60.453 3.75596 65.1692C8.11525 70.6416 16.8253 71.7633 27.4304 71.7633C32.291 71.7633 38.5963 71.5169 42.4542 70.7436V62.4329L27.4304 62.6794Z" fill="#001689"></path><path d="M27.4304 62.6794C19.2642 62.6794 14.7434 61.6681 13.1883 59.5097C11.5908 57.2833 11.5908 52.1678 11.5908 45.0977C11.5908 38.0277 11.5908 32.9121 13.1883 30.6857C14.7434 28.5188 19.2981 27.5161 27.4304 27.5161L42.0633 27.7625V19.4518C39.0127 18.925 31.8237 18.4321 27.4304 18.4321C16.8338 18.4321 8.11525 19.5538 3.75596 25.0263C0 29.7255 0 36.1752 0 45.0892C0 54.0033 0 60.453 3.75596 65.1692C8.11525 70.6416 16.8253 71.7633 27.4304 71.7633C32.291 71.7633 38.5963 71.5169 42.4542 70.7436V62.4329L27.4304 62.6794Z" fill="#001689"></path><path d="M125.221 12.5263C127.686 12.5263 129.538 12.2629 130.549 10.9967C131.425 9.90051 131.425 8.40493 131.425 6.3315C131.425 4.25808 131.425 2.76249 130.549 1.66629C129.538 0.391648 127.686 0.136719 125.221 0.136719C122.757 0.136719 120.904 0.400146 119.893 1.66629C119.018 2.76249 119.018 4.25808 119.018 6.3315C119.018 8.40493 119.018 9.90051 119.893 10.9967C120.904 12.2714 122.757 12.5263 125.221 12.5263Z" fill="#001689"></path><path d="M61.0301 12.5263C63.4944 12.5263 65.3469 12.2629 66.3581 10.9967C67.2333 9.90051 67.2333 8.40493 67.2333 6.3315C67.2333 4.25808 67.2333 2.76249 66.3581 1.66629C65.3469 0.391648 63.4944 0.136719 61.0301 0.136719C58.5657 0.136719 56.7133 0.400146 55.702 1.66629C54.8268 2.76249 54.8268 4.25808 54.8268 6.3315C54.8268 8.40493 54.8268 9.90051 55.702 10.9967C56.7133 12.2714 58.5657 12.5263 61.0301 12.5263Z" fill="#001689"></path><path d="M110.291 19.5283C107.835 18.8145 99.3714 18.5085 99.057 18.5085C90.9163 18.5085 84.2286 19.6302 80.8806 25.1027C78.1953 29.496 78.0084 35.3934 77.9999 43.3896C77.9999 43.4151 77.9999 62.5263 77.9999 69.0695V71.2449H88.8259V45.0977C88.8259 38.0191 88.8259 32.912 90.4234 30.6857C91.7236 28.8757 95.0886 27.601 100.961 27.601C106.832 27.601 110.299 27.8305 110.299 27.8305V19.5368H110.291V19.5283Z" fill="#001689"></path><path d="M125.221 12.5263C127.686 12.5263 129.538 12.2629 130.549 10.9967C131.425 9.90051 131.425 8.40493 131.425 6.3315C131.425 4.25808 131.425 2.76249 130.549 1.66629C129.538 0.391648 127.686 0.136719 125.221 0.136719C122.757 0.136719 120.904 0.400146 119.893 1.66629C119.018 2.76249 119.018 4.25808 119.018 6.3315C119.018 8.40493 119.018 9.90051 119.893 10.9967C120.904 12.2714 122.757 12.5263 125.221 12.5263Z" fill="#001689"></path><path d="M190.781 25.0773C186.43 19.6133 179.317 18.4916 168.738 18.4916C158.158 18.4916 151.046 19.6133 146.695 25.0773C142.947 29.7849 142.947 36.2177 142.947 45.1232C142.947 54.0287 142.947 60.4614 146.695 65.1691C147.417 66.0784 148.216 66.8602 149.1 67.54C151.547 64.9907 153.484 62.1185 154.946 58.8469C155.099 58.575 155.243 58.2945 155.396 58.0056C154.521 55.3544 154.521 50.8931 154.521 45.1147C154.521 38.0531 154.521 32.9461 156.119 30.7197C157.665 28.5613 160.597 27.5586 168.746 27.5586C176.895 27.5586 179.827 28.5613 181.374 30.7282C182.971 32.9546 182.971 38.0616 182.971 45.1232C182.971 52.1847 182.971 57.2918 181.374 59.5182C179.827 61.6766 176.895 62.6878 168.746 62.6878C168.534 62.6878 168.33 62.6878 168.126 62.6878C166.401 65.8659 164.557 68.8316 162.5 71.5848C164.429 71.7123 166.503 71.7633 168.738 71.7633C179.326 71.7633 186.43 70.6416 190.781 65.1776C194.528 60.4699 194.528 54.0372 194.528 45.1317C194.528 36.2262 194.528 29.7934 190.781 25.0857V25.0773Z" fill="#001689"></path></svg>