<svg xmlns="http://www.w3.org/2000/svg" viewBox="0 0 195.46 106.71"><g id="Capa_2" data-name="Capa 2"><g id="Capa_1-2" data-name="Capa 1"><g id="Capa_2-2" data-name="Capa 2"><g id="Capa_1-2-2" data-name="Capa 1-2"><rect x="76" y="0.01" width="16.53" height="61.21" fill="#034c8a"/><path d="M108.32,42.85a3.32,3.32,0,0,1,2.75,1.57L122.92,41a15.29,15.29,0,1,0-.37,10.9l-11.48-4.23a3.22,3.22,0,1,1-2.75-4.79Z" fill="#034c8a"/><path d="M107.9,30.56A15.28,15.28,0,1,0,92.66,15.24v0A15.31,15.31,0,0,0,107.9,30.56Z" fill="#034c8a"/><path d="M139,78c-4.29-2.4-9.83-1.94-14.48-.85a30.9,30.9,0,0,0-4,1.14l1.69,5.85a30.53,30.53,0,0,1,4.69-1.32c3.92-.79,8.56-.2,8.81,4.93H132c-5.19,0-9,.73-11.44,2.3a7.57,7.57,0,0,0-3.73,7,8.77,8.77,0,0,0,2.51,6.58,9.45,9.45,0,0,0,6.87,2.47c3.62,0,8-1.15,9.72-4.71l.06,4.41h9v-15C144.93,84.85,143,80.33,139,78Zm-3.25,19.4a10,10,0,0,1-5.92,1.94,4.07,4.07,0,0,1-2.65-.92,3.15,3.15,0,0,1-1-2.4A3.2,3.2,0,0,1,128,93a15.7,15.7,0,0,1,6.15-.91h1.58Z" fill="#034c8a"/><path d="M168.88,76.94l-.5,8.39a4.64,4.64,0,0,0-1.31-.36,15.81,15.81,0,0,0-1.69-.12,6.31,6.31,0,0,0-5.31,2.24,10.84,10.84,0,0,0-1.75,6.62v12.18h-9.7V77.43h8.68v5.36a11,11,0,0,1,3.61-4.71,8.48,8.48,0,0,1,5.07-1.5c.49,0,1.38.13,2.72.31Z" fill="#034c8a"/><path d="M189.56,78c-4.34-2.4-9.91-1.94-14.53-.85a30.9,30.9,0,0,0-4,1.14l1.75,5.85a30.83,30.83,0,0,1,4.62-1.32c4-.79,8.64-.2,8.81,4.93h-3.73c-5.19,0-9,.73-11.45,2.3a7.67,7.67,0,0,0-3.74,7,8.59,8.59,0,0,0,2.59,6.58,9.22,9.22,0,0,0,6.81,2.47c3.68,0,8-1.15,9.71-4.71l.06,4.41h9v-15C195.47,84.85,193.59,80.33,189.56,78Zm-3.33,19.4a9.78,9.78,0,0,1-5.9,1.94,4.07,4.07,0,0,1-2.65-.92,3.07,3.07,0,0,1-1-2.4,3.1,3.1,0,0,1,1.87-3,15.05,15.05,0,0,1,6.09-.91h1.56Z" fill="#034c8a"/><polygon points="189.97 64.17 182.2 64.17 177.73 72.85 182.38 72.85 189.97 64.17" fill="#034c8a"/><path d="M92.53,98.23c2.47.6,4.58,1.5,7.84,1.75,1.8.12,5.07.06,5.07-2.54,0-2-4.36-2.76-6-3.24C96,93,91.68,90.81,91.68,85.94a7.77,7.77,0,0,1,3.5-6.88c5.19-3.55,12.84-3.18,18.26-1.26l-.9,6.08c-2.47-.79-6.5-1.63-9.21-1.15-1.22.26-2.37,1-2.37,2.36,0,2,4.35,2.7,6,3.2,2.23.66,4.75,1.49,6.38,3.25a7.71,7.71,0,0,1,1.88,5,8.73,8.73,0,0,1-3.56,7.28c-5.91,4.11-13.81,3.26-20,1Z" fill="#034c8a"/><path d="M67.12,98.23c2.47.6,4.65,1.5,7.9,1.75,1.81.12,5.06.06,5.06-2.54,0-2-4.33-2.76-6-3.24-3.55-1.22-7.82-3.39-7.82-8.26a7.75,7.75,0,0,1,3.5-6.88C75,75.51,82.68,75.88,88.11,77.8l-.91,6.08c-2.47-.79-6.51-1.63-9.22-1.15-1.21.26-2.35,1-2.35,2.36,0,2,4.39,2.7,6,3.2,2.3.66,4.77,1.49,6.39,3.25a7.71,7.71,0,0,1,1.88,5,8.7,8.7,0,0,1-3.57,7.28c-5.9,4.11-13.79,3.26-20.07,1Z" fill="#034c8a"/><path d="M56.94,78c-4.35-2.4-9.88-1.94-14.54-.85a29.5,29.5,0,0,0-3.9,1.14l1.67,5.85a32,32,0,0,1,4.71-1.32c3.92-.79,8.57-.2,8.8,4.93H49.9c-5.14,0-9,.73-11.46,2.3a7.7,7.7,0,0,0-3.75,7,8.84,8.84,0,0,0,2.59,6.58,9.3,9.3,0,0,0,6.88,2.47c3.62,0,8-1.15,9.71-4.71v4.41h9v-15C62.84,84.85,61,80.33,56.94,78Zm-3.31,19.4a9.78,9.78,0,0,1-5.85,1.94,4.14,4.14,0,0,1-2.66-.92,3,3,0,0,1-1-2.4A3.12,3.12,0,0,1,46,93a15.75,15.75,0,0,1,6.16-.91h1.51Z" fill="#034c8a"/><path d="M28,62.67c-6.93-1.14-14.4.08-20,4.52a21.9,21.9,0,0,0,0,33.88c7.06,5.54,16.94,5.84,25.27,3.26l-2.47-8.92C25.53,97.2,18,96.78,14,92.79a11.73,11.73,0,0,1-3.37-8.67A11.76,11.76,0,0,1,14,75.44c4-4,11.52-4.53,16.81-2.71.66.25.9.33,1.32.47l3-8.52A29.91,29.91,0,0,0,28,62.67Z" fill="#034c8a"/></g></g></g></g></svg>