<?xml version="1.0" encoding="UTF-8"?>
<!-- Generator: Adobe Illustrator 27.8.1, SVG Export Plug-In . SVG Version: 6.00 Build 0)  -->
<svg xmlns="http://www.w3.org/2000/svg" xmlns:xlink="http://www.w3.org/1999/xlink" version="1.1" id="Layer_1" x="0px" y="0px" viewBox="0 0 226.97 128.98" style="enable-background:new 0 0 226.97 128.98;" xml:space="preserve">
<style type="text/css">
	.st0{clip-path:url(#SVGID_00000182517482600305337320000013865938401627393420_);fill:#737174;}
	.st1{clip-path:url(#SVGID_00000182517482600305337320000013865938401627393420_);}
	.st2{clip-path:url(#SVGID_00000083088167399618674380000017369502269248433560_);fill:#737174;}
	.st3{clip-path:url(#SVGID_00000083088167399618674380000017369502269248433560_);fill:#CE202F;}
	.st4{fill:none;}
</style>
<g id="Logo_VALO_00000033363377273781627930000012335823829030753923_">
	<g>
		<defs>
			<rect id="SVGID_1_" x="-1.88" y="26.34" width="230.74" height="76.31"></rect>
		</defs>
		<clipPath id="SVGID_00000091697039801130593580000004011643272715488442_">
			<use xlink:href="#SVGID_1_" style="overflow:visible;"></use>
		</clipPath>
		<polygon style="clip-path:url(#SVGID_00000091697039801130593580000004011643272715488442_);fill:#737174;" points="103.23,86.53     100.57,86.53 97.91,86.53 89.48,64.98 81.05,43.43 84.03,42.79 87.01,42.16 93.82,60.35 100.64,78.54 107.32,60.57 114.01,42.6     117.15,42.6 120.29,42.6 111.76,64.57   "></polygon>
		<path style="clip-path:url(#SVGID_00000091697039801130593580000004011643272715488442_);fill:#737174;" d="M149.79,86.78    L147.22,80l-2.57-6.78h-9.03h-9.03l-2.47,6.56l-2.47,6.56h-3.01h-3.01l8.56-21.96l8.56-21.96h2.98h2.98l8.43,21.55l8.43,21.55    l-2.88,0.63L149.79,86.78z M135.59,49.51l-3.49,9.22l-3.49,9.22h7h7l-3.52-9.22L135.59,49.51z"></path>
		<polygon style="clip-path:url(#SVGID_00000091697039801130593580000004011643272715488442_);fill:#737174;" points="161.52,86.34     161.52,64.47 161.52,42.6 164.5,42.6 167.48,42.6 167.48,61.75 167.48,80.89 175.37,80.89 183.27,80.89 183.68,83.61     184.09,86.34 172.81,86.34   "></polygon>
		<g style="clip-path:url(#SVGID_00000091697039801130593580000004011643272715488442_);">
			<defs>
				<rect id="SVGID_00000086678645378800764150000002498096706118249861_" x="-1.88" y="26.34" width="230.74" height="76.31"></rect>
			</defs>
			<clipPath id="SVGID_00000103267205691571317260000013120482313517466793_">
				<use xlink:href="#SVGID_00000086678645378800764150000002498096706118249861_" style="overflow:visible;"></use>
			</clipPath>
			<path style="clip-path:url(#SVGID_00000103267205691571317260000013120482313517466793_);fill:#737174;" d="M224.9,73.66     c-0.24,0.7-0.5,1.37-0.79,2.02c-0.29,0.65-0.6,1.27-0.94,1.87c-0.34,0.6-0.7,1.17-1.09,1.73c-0.39,0.55-0.8,1.08-1.24,1.58     c-0.44,0.5-0.9,0.98-1.38,1.42c-0.48,0.45-0.99,0.86-1.52,1.25c-0.53,0.39-1.08,0.75-1.66,1.08c-0.58,0.33-1.18,0.63-1.8,0.91     c-0.62,0.27-1.27,0.52-1.93,0.72c-0.66,0.21-1.34,0.38-2.04,0.52c-0.7,0.14-1.41,0.24-2.15,0.31c-0.73,0.07-1.49,0.1-2.26,0.1     c-0.77,0-1.52-0.03-2.26-0.1c-0.73-0.07-1.45-0.17-2.14-0.31c-0.69-0.14-1.37-0.31-2.03-0.52c-0.66-0.21-1.29-0.45-1.91-0.72     c-0.62-0.27-1.21-0.58-1.79-0.91c-0.57-0.33-1.12-0.69-1.65-1.07c-0.53-0.39-1.03-0.8-1.52-1.24c-0.48-0.44-0.94-0.91-1.38-1.41     c-0.44-0.5-0.85-1.02-1.24-1.56c-0.39-0.55-0.75-1.12-1.08-1.71c-0.34-0.59-0.64-1.21-0.93-1.86c-0.28-0.64-0.54-1.31-0.77-2     c-0.23-0.69-0.44-1.4-0.61-2.13c-0.17-0.73-0.32-1.48-0.44-2.25c-0.12-0.77-0.2-1.56-0.26-2.36c-0.06-0.81-0.09-1.63-0.09-2.48     c0-0.84,0.03-1.67,0.09-2.48c0.06-0.81,0.15-1.6,0.27-2.37c0.12-0.77,0.27-1.52,0.45-2.26c0.18-0.73,0.39-1.45,0.62-2.15     c0.24-0.7,0.5-1.37,0.79-2.02c0.29-0.65,0.6-1.27,0.94-1.87c0.34-0.6,0.7-1.17,1.09-1.73c0.39-0.55,0.8-1.08,1.24-1.58     c0.44-0.5,0.9-0.98,1.38-1.42c0.48-0.45,0.99-0.86,1.52-1.25c0.53-0.39,1.09-0.75,1.66-1.08c0.58-0.33,1.18-0.63,1.8-0.91     c0.62-0.27,1.26-0.52,1.93-0.72c0.66-0.21,1.34-0.38,2.04-0.52c0.7-0.14,1.41-0.24,2.15-0.31c0.73-0.07,1.49-0.1,2.26-0.1     c0.77,0,1.52,0.03,2.26,0.1c0.73,0.07,1.45,0.17,2.14,0.31c0.69,0.14,1.37,0.31,2.03,0.52c0.66,0.21,1.29,0.45,1.91,0.72     c0.62,0.27,1.21,0.58,1.79,0.91c0.57,0.33,1.12,0.69,1.65,1.07c0.53,0.39,1.03,0.8,1.52,1.24s0.94,0.91,1.38,1.41     c0.44,0.5,0.85,1.02,1.24,1.56c0.39,0.55,0.75,1.12,1.08,1.71c0.34,0.59,0.65,1.21,0.93,1.86c0.28,0.64,0.54,1.31,0.77,2     c0.23,0.69,0.44,1.4,0.61,2.13c0.17,0.73,0.32,1.48,0.44,2.25c0.12,0.77,0.2,1.56,0.26,2.36c0.06,0.81,0.09,1.63,0.09,2.48     s-0.03,1.67-0.09,2.48c-0.06,0.81-0.15,1.6-0.27,2.37c-0.12,0.77-0.27,1.52-0.45,2.26C225.34,72.25,225.13,72.97,224.9,73.66      M219.19,57.34c-0.16-0.53-0.35-1.05-0.54-1.54c-0.2-0.49-0.41-0.97-0.65-1.42c-0.23-0.45-0.48-0.89-0.75-1.3     c-0.27-0.41-0.55-0.81-0.85-1.18c-0.3-0.37-0.62-0.73-0.95-1.06c-0.33-0.33-0.68-0.64-1.05-0.93c-0.37-0.29-0.75-0.55-1.15-0.8     c-0.4-0.24-0.82-0.47-1.25-0.67c-0.43-0.2-0.88-0.38-1.34-0.53c-0.46-0.15-0.93-0.28-1.42-0.38c-0.49-0.1-0.99-0.18-1.5-0.23     c-0.51-0.05-1.04-0.08-1.58-0.08c-0.54,0-1.06,0.03-1.58,0.08c-0.51,0.05-1.01,0.13-1.5,0.23c-0.49,0.1-0.96,0.23-1.42,0.38     c-0.46,0.15-0.91,0.33-1.34,0.53c-0.43,0.2-0.85,0.42-1.25,0.67c-0.4,0.24-0.78,0.51-1.15,0.8c-0.37,0.29-0.72,0.6-1.05,0.93     c-0.33,0.33-0.65,0.68-0.95,1.06c-0.3,0.38-0.59,0.77-0.85,1.18c-0.27,0.42-0.52,0.85-0.75,1.3c-0.23,0.45-0.45,0.93-0.65,1.42     c-0.2,0.49-0.38,1.01-0.54,1.54c-0.16,0.53-0.31,1.08-0.43,1.65c-0.12,0.56-0.22,1.14-0.31,1.74s-0.14,1.2-0.18,1.83     c-0.04,0.62-0.06,1.26-0.06,1.92c0,0.65,0.02,1.29,0.06,1.92c0.04,0.62,0.1,1.23,0.18,1.83c0.08,0.59,0.18,1.17,0.31,1.74     c0.12,0.56,0.27,1.11,0.43,1.65c0.16,0.53,0.34,1.05,0.54,1.54c0.2,0.49,0.41,0.97,0.65,1.42c0.23,0.45,0.48,0.89,0.75,1.3     c0.27,0.41,0.55,0.81,0.85,1.18c0.3,0.38,0.62,0.73,0.95,1.06c0.33,0.33,0.68,0.64,1.05,0.93c0.37,0.29,0.75,0.55,1.15,0.8     s0.82,0.47,1.25,0.67s0.88,0.38,1.34,0.53c0.46,0.15,0.93,0.28,1.42,0.38c0.49,0.1,0.99,0.18,1.5,0.23     c0.51,0.05,1.04,0.08,1.58,0.08c0.54,0,1.06-0.03,1.58-0.08c0.51-0.05,1.01-0.13,1.5-0.23c0.49-0.1,0.96-0.23,1.42-0.38     c0.46-0.15,0.91-0.33,1.34-0.53c0.43-0.2,0.85-0.42,1.25-0.67c0.4-0.24,0.78-0.51,1.15-0.8c0.37-0.29,0.72-0.6,1.05-0.93     c0.33-0.33,0.65-0.68,0.95-1.06s0.59-0.77,0.85-1.18c0.27-0.41,0.52-0.85,0.75-1.3c0.23-0.45,0.45-0.93,0.65-1.42     c0.2-0.49,0.38-1.01,0.54-1.54c0.16-0.53,0.31-1.08,0.43-1.65c0.12-0.56,0.22-1.14,0.31-1.74c0.08-0.59,0.14-1.2,0.18-1.83     c0.04-0.62,0.06-1.26,0.06-1.92c0-0.65-0.02-1.29-0.06-1.92c-0.04-0.62-0.1-1.23-0.18-1.83s-0.18-1.17-0.31-1.74     C219.5,58.42,219.36,57.87,219.19,57.34"></path>
			<path style="clip-path:url(#SVGID_00000103267205691571317260000013120482313517466793_);fill:#CE202F;" d="M24.16,52.38     c0.16-0.13,0.32-0.25,0.49-0.38c0.17-0.13,0.34-0.26,0.51-0.4c0.18-0.13,0.36-0.27,0.54-0.41c0.18-0.14,0.37-0.28,0.57-0.42     c0.78-0.58,1.58-1.14,2.39-1.68c0.81-0.54,1.63-1.07,2.45-1.57c0.83-0.51,1.67-1,2.51-1.46c0.85-0.47,1.7-0.92,2.57-1.35     c1.08-0.54,2.24-1.1,3.44-1.67c1.2-0.57,2.44-1.15,3.68-1.71c1.24-0.57,2.48-1.12,3.68-1.64c1.2-0.53,2.37-1.02,3.45-1.47     c0.93-0.38,1.78-0.74,2.56-1.09c0.78-0.34,1.5-0.67,2.16-0.99c0.67-0.32,1.28-0.63,1.86-0.95c0.58-0.31,1.13-0.63,1.66-0.95     l-0.08-0.03l-0.08-0.03l-0.08-0.03l-0.08-0.03c-0.98-0.38-2.26-0.89-3.7-1.45c-1.43-0.56-3-1.18-4.55-1.79     c-1.54-0.61-3.05-1.2-4.36-1.71c-1.31-0.51-2.41-0.94-3.13-1.23c-0.17,0.47-0.36,0.94-0.57,1.4c-0.21,0.46-0.44,0.91-0.7,1.34     c-0.25,0.44-0.53,0.86-0.82,1.26c-0.29,0.41-0.6,0.79-0.92,1.16c-0.48,0.54-0.96,1.06-1.43,1.54c-0.47,0.48-0.92,0.92-1.35,1.33     c-0.43,0.41-0.83,0.77-1.19,1.09c-0.36,0.32-0.68,0.6-0.94,0.83c-0.06,0.05-0.11,0.09-0.16,0.14c-0.05,0.04-0.1,0.08-0.14,0.12     c-0.04,0.04-0.09,0.07-0.12,0.11c-0.04,0.03-0.07,0.06-0.1,0.09c-0.19,0.17-0.52,0.46-0.95,0.81c-0.43,0.35-0.94,0.77-1.48,1.21     c-0.54,0.44-1.1,0.89-1.63,1.31c-0.53,0.42-1.01,0.8-1.4,1.09c-0.15,0.12-0.3,0.23-0.45,0.36c-0.15,0.12-0.29,0.25-0.42,0.37     c-0.14,0.12-0.27,0.25-0.4,0.37c-0.13,0.12-0.26,0.24-0.38,0.36l-0.01,0.01l-0.01,0.01l-0.01,0.01l-0.01,0.01     c-0.08,0.21-0.22,0.58-0.39,1.05c-0.17,0.47-0.38,1.03-0.6,1.64c-0.22,0.61-0.45,1.25-0.68,1.88c-0.22,0.63-0.44,1.25-0.62,1.79     c-0.05,0.15-0.1,0.3-0.15,0.45c-0.05,0.15-0.1,0.3-0.15,0.45c-0.05,0.15-0.1,0.3-0.14,0.44C24.25,52.09,24.2,52.24,24.16,52.38"></path>
			<path style="clip-path:url(#SVGID_00000103267205691571317260000013120482313517466793_);fill:#CE202F;" d="M19.42,65.16     c0.02-0.2,0.05-0.4,0.07-0.61c0.03-0.21,0.05-0.43,0.08-0.64c0.03-0.22,0.06-0.44,0.09-0.67c0.03-0.23,0.07-0.46,0.1-0.7     c0.15-0.96,0.31-1.92,0.5-2.87c0.19-0.95,0.4-1.9,0.62-2.85c0.23-0.94,0.48-1.88,0.74-2.81c0.27-0.93,0.55-1.85,0.86-2.77     c0.38-1.14,0.8-2.36,1.25-3.61c0.45-1.25,0.91-2.53,1.39-3.81c0.48-1.28,0.96-2.55,1.44-3.77c0.48-1.22,0.95-2.39,1.4-3.48     c0.38-0.93,0.73-1.78,1.04-2.58c0.31-0.8,0.58-1.54,0.83-2.23c0.24-0.7,0.46-1.36,0.65-1.99s0.36-1.24,0.5-1.84l-0.08,0.04     l-0.08,0.04l-0.08,0.04l-0.08,0.04c-0.96,0.42-2.23,0.97-3.64,1.59s-2.96,1.29-4.48,1.95c-1.52,0.66-3.01,1.31-4.29,1.87     c-1.29,0.56-2.37,1.04-3.08,1.35c0.22,0.45,0.42,0.92,0.59,1.39c0.18,0.47,0.33,0.96,0.46,1.44c0.13,0.49,0.24,0.98,0.32,1.47     c0.08,0.49,0.14,0.98,0.17,1.47c0.05,0.72,0.07,1.43,0.08,2.1c0.01,0.67,0,1.31-0.02,1.9c-0.02,0.59-0.04,1.13-0.07,1.61     c-0.03,0.48-0.06,0.9-0.08,1.25c-0.01,0.07-0.01,0.14-0.01,0.21c0,0.07-0.01,0.13-0.01,0.19c0,0.06-0.01,0.11-0.01,0.16     c0,0.05-0.01,0.1-0.01,0.14c-0.01,0.25-0.05,0.69-0.1,1.24c-0.05,0.55-0.12,1.21-0.19,1.9c-0.07,0.69-0.15,1.41-0.23,2.07     c-0.08,0.67-0.15,1.28-0.22,1.76c-0.03,0.19-0.05,0.38-0.06,0.57c-0.02,0.19-0.03,0.38-0.04,0.56c-0.01,0.18-0.02,0.37-0.02,0.55     c-0.01,0.18-0.01,0.35-0.02,0.52v0.01l0,0.01l0,0.01v0.01c0.09,0.21,0.26,0.57,0.47,1.02c0.21,0.45,0.46,1,0.73,1.58     c0.27,0.58,0.57,1.21,0.85,1.81c0.29,0.61,0.57,1.19,0.82,1.71c0.07,0.14,0.14,0.29,0.21,0.43c0.07,0.14,0.14,0.28,0.21,0.42     c0.07,0.14,0.14,0.28,0.21,0.41C19.28,64.9,19.35,65.03,19.42,65.16"></path>
			<path style="clip-path:url(#SVGID_00000103267205691571317260000013120482313517466793_);fill:#CE202F;" d="M25.1,77.56     c-0.13-0.16-0.25-0.32-0.38-0.49c-0.13-0.17-0.26-0.34-0.4-0.51c-0.13-0.18-0.27-0.36-0.41-0.54c-0.14-0.18-0.28-0.37-0.42-0.57     c-0.58-0.78-1.13-1.58-1.68-2.39s-1.07-1.63-1.57-2.45c-0.51-0.83-0.99-1.67-1.46-2.51c-0.47-0.85-0.92-1.7-1.35-2.57     c-0.54-1.08-1.1-2.24-1.67-3.44c-0.57-1.2-1.15-2.44-1.71-3.68c-0.56-1.24-1.12-2.48-1.64-3.68c-0.52-1.2-1.02-2.37-1.47-3.45     c-0.38-0.93-0.74-1.78-1.09-2.56c-0.34-0.78-0.67-1.5-0.99-2.16c-0.32-0.67-0.63-1.28-0.95-1.86c-0.31-0.58-0.63-1.13-0.95-1.66     l-0.03,0.08L6.89,43.2l-0.03,0.08l-0.03,0.08c-0.38,0.98-0.89,2.26-1.45,3.7c-0.56,1.43-1.18,3-1.79,4.55     c-0.61,1.54-1.2,3.05-1.71,4.36c-0.51,1.31-0.94,2.41-1.23,3.13c0.47,0.17,0.94,0.36,1.4,0.57c0.46,0.21,0.91,0.44,1.34,0.7     s0.86,0.53,1.26,0.82c0.41,0.29,0.79,0.6,1.16,0.92c0.54,0.48,1.06,0.96,1.54,1.43c0.48,0.47,0.92,0.92,1.33,1.35     s0.77,0.83,1.09,1.19c0.32,0.36,0.6,0.68,0.83,0.94c0.05,0.06,0.09,0.11,0.14,0.16s0.08,0.1,0.12,0.14     c0.04,0.04,0.07,0.09,0.11,0.12c0.03,0.04,0.06,0.07,0.09,0.1c0.17,0.19,0.46,0.52,0.81,0.95c0.35,0.42,0.77,0.94,1.21,1.48     c0.44,0.54,0.89,1.1,1.3,1.63c0.42,0.53,0.8,1.01,1.09,1.4c0.12,0.15,0.24,0.3,0.36,0.45c0.12,0.14,0.25,0.29,0.37,0.42     c0.12,0.14,0.25,0.27,0.37,0.4c0.12,0.13,0.24,0.26,0.36,0.38l0.01,0.01l0.01,0.01l0.01,0.01l0.01,0.01     c0.21,0.08,0.58,0.22,1.05,0.39c0.47,0.17,1.03,0.38,1.64,0.6c0.61,0.22,1.25,0.45,1.88,0.68c0.63,0.22,1.25,0.44,1.79,0.62     c0.15,0.05,0.3,0.1,0.46,0.15c0.15,0.05,0.3,0.1,0.45,0.15c0.15,0.05,0.3,0.1,0.44,0.14C24.82,77.47,24.96,77.51,25.1,77.56"></path>
			<path style="clip-path:url(#SVGID_00000103267205691571317260000013120482313517466793_);fill:#CE202F;" d="M37.89,82.3     c-0.2-0.02-0.4-0.05-0.61-0.07c-0.21-0.03-0.42-0.05-0.64-0.08c-0.22-0.03-0.44-0.06-0.67-0.09c-0.23-0.03-0.46-0.07-0.7-0.1     c-0.96-0.15-1.92-0.31-2.87-0.5c-0.95-0.19-1.9-0.4-2.85-0.62c-0.94-0.23-1.88-0.48-2.81-0.74c-0.93-0.27-1.85-0.55-2.77-0.86     c-1.14-0.38-2.36-0.8-3.61-1.25c-1.25-0.45-2.53-0.91-3.81-1.39c-1.28-0.48-2.55-0.96-3.77-1.44c-1.22-0.48-2.39-0.95-3.48-1.4     c-0.93-0.39-1.78-0.73-2.58-1.04c-0.8-0.31-1.54-0.58-2.23-0.83c-0.7-0.24-1.36-0.46-1.99-0.65c-0.63-0.19-1.24-0.36-1.84-0.5     l0.04,0.08l0.04,0.08l0.04,0.08l0.04,0.08c0.42,0.96,0.97,2.23,1.59,3.64c0.61,1.41,1.29,2.96,1.95,4.48     c0.66,1.52,1.31,3.01,1.87,4.29c0.56,1.29,1.04,2.37,1.35,3.08c0.45-0.22,0.92-0.42,1.39-0.59c0.47-0.17,0.96-0.33,1.44-0.46     c0.49-0.13,0.98-0.24,1.47-0.32c0.49-0.08,0.98-0.14,1.47-0.17c0.72-0.05,1.43-0.07,2.1-0.08c0.67-0.01,1.31,0,1.9,0.02     c0.59,0.02,1.13,0.04,1.61,0.07c0.48,0.03,0.9,0.06,1.25,0.08c0.07,0.01,0.14,0.01,0.21,0.01c0.07,0,0.13,0.01,0.19,0.01     c0.06,0,0.11,0.01,0.16,0.01c0.05,0,0.1,0.01,0.14,0.01c0.25,0.01,0.69,0.05,1.24,0.1c0.55,0.05,1.21,0.12,1.9,0.19     c0.69,0.07,1.41,0.15,2.07,0.23c0.67,0.08,1.28,0.15,1.76,0.22c0.19,0.03,0.38,0.05,0.57,0.06c0.19,0.02,0.38,0.03,0.56,0.04     S29.36,86,29.54,86c0.18,0.01,0.35,0.01,0.52,0.02l0.01,0h0.01l0.01,0l0.01,0c0.21-0.1,0.57-0.26,1.02-0.47     c0.45-0.21,1-0.46,1.58-0.73c0.58-0.27,1.21-0.57,1.81-0.85c0.61-0.29,1.19-0.57,1.71-0.82c0.14-0.07,0.29-0.14,0.43-0.21     c0.14-0.07,0.28-0.14,0.42-0.21c0.14-0.07,0.28-0.14,0.41-0.21C37.63,82.43,37.76,82.36,37.89,82.3"></path>
			<path style="clip-path:url(#SVGID_00000103267205691571317260000013120482313517466793_);fill:#CE202F;" d="M50.28,76.61     c-0.16,0.13-0.32,0.25-0.48,0.38c-0.17,0.13-0.34,0.26-0.51,0.4c-0.18,0.14-0.36,0.27-0.54,0.41c-0.18,0.14-0.37,0.28-0.57,0.42     c-0.78,0.58-1.58,1.14-2.39,1.68c-0.81,0.54-1.63,1.07-2.45,1.57c-0.83,0.51-1.67,0.99-2.51,1.46c-0.85,0.47-1.7,0.92-2.57,1.35     c-1.08,0.54-2.24,1.1-3.44,1.67c-1.2,0.57-2.44,1.15-3.68,1.71c-1.24,0.57-2.48,1.12-3.68,1.64c-1.2,0.52-2.37,1.02-3.45,1.47     c-0.93,0.38-1.78,0.74-2.56,1.09c-0.78,0.34-1.5,0.67-2.16,0.99c-0.67,0.32-1.28,0.63-1.86,0.95c-0.58,0.31-1.13,0.63-1.66,0.95     l0.08,0.03l0.08,0.03l0.08,0.03l0.08,0.03c0.98,0.38,2.26,0.89,3.7,1.45c1.43,0.56,3,1.18,4.55,1.79     c1.54,0.61,3.05,1.2,4.36,1.71c1.31,0.51,2.41,0.94,3.13,1.23c0.17-0.47,0.36-0.94,0.57-1.4c0.21-0.46,0.44-0.91,0.7-1.34     c0.25-0.44,0.53-0.86,0.82-1.26c0.29-0.41,0.6-0.79,0.92-1.16c0.48-0.54,0.96-1.06,1.43-1.54c0.47-0.48,0.92-0.92,1.35-1.33     c0.43-0.4,0.83-0.77,1.19-1.09c0.36-0.32,0.68-0.6,0.94-0.83c0.06-0.05,0.11-0.09,0.16-0.14c0.05-0.04,0.1-0.08,0.14-0.12     c0.04-0.04,0.09-0.07,0.12-0.11c0.04-0.03,0.07-0.06,0.1-0.09c0.19-0.17,0.52-0.46,0.95-0.81c0.43-0.35,0.94-0.77,1.48-1.21     c0.54-0.44,1.1-0.89,1.63-1.31c0.53-0.42,1.01-0.8,1.4-1.09c0.15-0.12,0.3-0.24,0.45-0.36c0.15-0.12,0.29-0.25,0.42-0.37     c0.14-0.12,0.27-0.25,0.4-0.37c0.13-0.12,0.26-0.24,0.38-0.36l0.01-0.01l0.01-0.01l0.01-0.01l0.01-0.01     c0.08-0.21,0.22-0.58,0.39-1.05c0.17-0.47,0.38-1.03,0.6-1.64c0.22-0.61,0.45-1.25,0.68-1.88c0.22-0.63,0.44-1.25,0.62-1.79     c0.05-0.15,0.1-0.3,0.15-0.46c0.05-0.15,0.1-0.3,0.15-0.45c0.05-0.15,0.1-0.3,0.14-0.44C50.19,76.89,50.24,76.75,50.28,76.61"></path>
			<path style="clip-path:url(#SVGID_00000103267205691571317260000013120482313517466793_);fill:#CE202F;" d="M55.02,63.82     c-0.02,0.2-0.05,0.4-0.07,0.62c-0.03,0.21-0.05,0.42-0.08,0.64c-0.03,0.22-0.06,0.44-0.09,0.67c-0.03,0.23-0.07,0.46-0.1,0.7     c-0.15,0.96-0.31,1.92-0.5,2.87c-0.19,0.95-0.4,1.9-0.62,2.85c-0.23,0.94-0.48,1.88-0.74,2.81c-0.27,0.93-0.55,1.85-0.86,2.77     c-0.38,1.14-0.8,2.36-1.25,3.61c-0.45,1.25-0.91,2.53-1.39,3.81c-0.48,1.28-0.96,2.55-1.44,3.77c-0.48,1.22-0.95,2.39-1.4,3.48     c-0.38,0.93-0.73,1.78-1.04,2.58c-0.31,0.8-0.58,1.54-0.83,2.23c-0.24,0.7-0.46,1.36-0.65,1.99s-0.36,1.24-0.5,1.84l0.08-0.04     l0.08-0.04l0.08-0.04l0.08-0.04c0.96-0.42,2.23-0.97,3.64-1.59c1.41-0.61,2.96-1.29,4.48-1.95c1.52-0.66,3.01-1.31,4.29-1.87     c1.29-0.56,2.37-1.04,3.08-1.35c-0.22-0.45-0.42-0.92-0.59-1.39c-0.17-0.47-0.33-0.96-0.46-1.44c-0.13-0.49-0.24-0.98-0.32-1.47     c-0.08-0.49-0.14-0.98-0.17-1.47c-0.05-0.72-0.07-1.43-0.08-2.1c-0.01-0.67,0-1.31,0.02-1.9c0.02-0.59,0.04-1.13,0.07-1.61     c0.03-0.48,0.06-0.9,0.08-1.25c0.01-0.07,0.01-0.14,0.01-0.21c0-0.07,0.01-0.13,0.01-0.19c0-0.06,0.01-0.11,0.01-0.16     c0-0.05,0.01-0.1,0.01-0.14c0.01-0.25,0.05-0.69,0.1-1.24c0.05-0.55,0.12-1.21,0.19-1.9c0.07-0.69,0.15-1.41,0.23-2.07     c0.08-0.67,0.15-1.28,0.22-1.76c0.03-0.19,0.05-0.38,0.06-0.57c0.02-0.19,0.03-0.38,0.04-0.56c0.01-0.18,0.02-0.37,0.02-0.55     c0.01-0.18,0.01-0.35,0.02-0.52l0-0.01v-0.01l0-0.01l0-0.01c-0.1-0.21-0.26-0.57-0.47-1.02s-0.46-1-0.73-1.58     c-0.27-0.58-0.57-1.21-0.85-1.81c-0.29-0.61-0.57-1.19-0.82-1.71c-0.07-0.14-0.14-0.29-0.21-0.43c-0.07-0.14-0.14-0.28-0.21-0.42     c-0.07-0.14-0.14-0.28-0.21-0.41C55.16,64.09,55.09,63.95,55.02,63.82"></path>
			<path style="clip-path:url(#SVGID_00000103267205691571317260000013120482313517466793_);fill:#CE202F;" d="M49.34,51.43     c0.13,0.16,0.25,0.32,0.38,0.49c0.13,0.17,0.26,0.34,0.4,0.51c0.13,0.18,0.27,0.36,0.41,0.54c0.14,0.18,0.28,0.37,0.42,0.57     c0.58,0.78,1.14,1.58,1.68,2.39c0.54,0.81,1.07,1.63,1.57,2.45c0.51,0.83,0.99,1.67,1.46,2.51c0.47,0.85,0.92,1.7,1.35,2.57     c0.54,1.08,1.1,2.24,1.67,3.44c0.57,1.2,1.15,2.44,1.71,3.68c0.57,1.24,1.12,2.48,1.64,3.68c0.52,1.2,1.02,2.37,1.47,3.45     c0.38,0.93,0.74,1.78,1.09,2.56c0.34,0.78,0.67,1.5,0.99,2.16c0.32,0.67,0.63,1.28,0.95,1.86c0.31,0.58,0.63,1.13,0.95,1.66     l0.03-0.08l0.03-0.08l0.03-0.08l0.03-0.08c0.38-0.97,0.89-2.26,1.45-3.7c0.56-1.43,1.18-3,1.79-4.55     c0.61-1.54,1.2-3.05,1.71-4.36c0.51-1.31,0.94-2.41,1.23-3.13c-0.47-0.17-0.94-0.36-1.4-0.57c-0.46-0.21-0.91-0.44-1.34-0.7     c-0.44-0.25-0.86-0.53-1.26-0.82c-0.41-0.29-0.79-0.6-1.16-0.92c-0.54-0.48-1.06-0.96-1.54-1.43c-0.48-0.47-0.92-0.92-1.33-1.35     c-0.4-0.43-0.77-0.83-1.09-1.19c-0.32-0.36-0.6-0.68-0.83-0.94c-0.05-0.06-0.09-0.11-0.14-0.16c-0.04-0.05-0.08-0.1-0.12-0.14     c-0.04-0.04-0.07-0.08-0.11-0.12c-0.03-0.04-0.06-0.07-0.09-0.1c-0.17-0.19-0.46-0.52-0.81-0.95c-0.35-0.43-0.77-0.94-1.21-1.48     c-0.44-0.54-0.89-1.1-1.31-1.63c-0.42-0.53-0.8-1.01-1.09-1.4c-0.12-0.15-0.24-0.3-0.36-0.45c-0.12-0.15-0.25-0.29-0.37-0.42     c-0.12-0.14-0.25-0.27-0.37-0.4c-0.12-0.13-0.24-0.26-0.36-0.38l-0.01-0.01l-0.01-0.01l-0.01-0.01l-0.01-0.01     c-0.21-0.08-0.58-0.22-1.05-0.39c-0.47-0.17-1.03-0.38-1.64-0.6s-1.25-0.45-1.88-0.68c-0.63-0.22-1.25-0.44-1.79-0.62     c-0.15-0.05-0.3-0.1-0.45-0.15c-0.15-0.05-0.3-0.1-0.45-0.15c-0.15-0.05-0.3-0.1-0.44-0.14C49.62,51.52,49.48,51.47,49.34,51.43"></path>
			<path style="clip-path:url(#SVGID_00000103267205691571317260000013120482313517466793_);fill:#CE202F;" d="M36.55,46.69     c0.2,0.02,0.4,0.05,0.61,0.07c0.21,0.03,0.42,0.05,0.64,0.08c0.22,0.03,0.44,0.06,0.67,0.09c0.23,0.03,0.46,0.07,0.7,0.1     c0.96,0.15,1.92,0.31,2.87,0.5c0.95,0.19,1.9,0.4,2.85,0.62c0.94,0.23,1.88,0.48,2.81,0.74c0.93,0.27,1.85,0.55,2.77,0.86     c1.14,0.38,2.36,0.8,3.61,1.25c1.25,0.45,2.53,0.91,3.81,1.39c1.28,0.48,2.54,0.96,3.77,1.44c1.22,0.48,2.39,0.95,3.48,1.4     c0.93,0.39,1.78,0.73,2.58,1.04c0.8,0.31,1.54,0.58,2.23,0.83c0.7,0.24,1.36,0.46,1.99,0.65c0.63,0.19,1.24,0.36,1.84,0.5     l-0.04-0.08l-0.04-0.08l-0.04-0.08l-0.04-0.08c-0.42-0.96-0.97-2.23-1.59-3.64c-0.61-1.41-1.29-2.96-1.95-4.48     c-0.66-1.52-1.31-3.01-1.87-4.29c-0.56-1.29-1.04-2.37-1.35-3.08c-0.45,0.22-0.92,0.42-1.39,0.59c-0.47,0.17-0.96,0.33-1.44,0.46     c-0.49,0.13-0.98,0.24-1.47,0.32c-0.49,0.08-0.98,0.14-1.47,0.17c-0.72,0.05-1.43,0.07-2.1,0.08c-0.67,0.01-1.31,0-1.9-0.02     c-0.59-0.02-1.13-0.04-1.61-0.07c-0.48-0.03-0.9-0.06-1.25-0.08c-0.07,0-0.14-0.01-0.21-0.01c-0.07,0-0.13-0.01-0.19-0.01     c-0.06,0-0.11-0.01-0.16-0.01c-0.05,0-0.1-0.01-0.14-0.01c-0.25-0.01-0.69-0.05-1.24-0.1c-0.55-0.05-1.21-0.12-1.9-0.19     c-0.69-0.07-1.41-0.15-2.07-0.23s-1.28-0.15-1.76-0.22c-0.19-0.03-0.38-0.05-0.57-0.06c-0.19-0.02-0.38-0.03-0.56-0.04     c-0.18-0.01-0.37-0.02-0.55-0.02s-0.35-0.01-0.52-0.02l-0.01,0h-0.01l-0.01,0h-0.01c-0.21,0.09-0.57,0.26-1.02,0.47     c-0.45,0.21-1,0.46-1.58,0.73c-0.58,0.27-1.21,0.57-1.81,0.85c-0.61,0.29-1.19,0.57-1.71,0.82c-0.14,0.07-0.29,0.14-0.43,0.21     c-0.14,0.07-0.28,0.14-0.42,0.21c-0.14,0.07-0.28,0.14-0.41,0.21C36.81,46.55,36.68,46.62,36.55,46.69"></path>
		</g>
	</g>
</g>
<rect class="st4" width="226.97" height="128.98"></rect>
</svg>
