<svg width="96" height="22" viewBox="0 0 96 22" fill="none" xmlns="http://www.w3.org/2000/svg">
<path d="M0 4.78283H2.39142L2.43933 7.19789H2.53709C3.39833 5.57188 4.97642 4.47168 6.86566 4.47168C10.4045 4.47168 12.4375 7.48475 12.4375 11.1674C12.4375 14.8021 10.3566 17.9347 6.84202 17.9347C4.618 17.9347 3.46989 16.7393 2.84823 15.4717H2.7524V22H0.00511135L0 4.78283ZM6.19353 15.3043C8.25016 15.3043 9.63722 13.654 9.63722 11.2632C9.63722 9.06284 8.4872 6.98257 6.28937 6.98257C4.1369 6.98257 2.84568 8.91973 2.84568 11.1674C2.84568 13.4151 3.9957 15.3043 6.19353 15.3043ZM20.4219 4.47168C23.9608 4.47168 26.1848 7.14997 26.1848 10.809V12.3391H16.6914C16.9067 14.1568 18.6042 15.4001 20.7324 15.4001C22.3348 15.4001 23.4829 14.5868 24.3192 13.7262L25.9459 15.3522C24.5588 17.0977 22.598 17.911 20.5414 17.911C17.1935 17.911 13.9888 15.5196 13.9888 11.2869C13.9888 7.48475 16.8588 4.47168 20.4219 4.47168ZM23.5065 10.1854C23.4586 8.392 22.3827 6.9813 20.3024 6.9813C18.5084 6.9813 16.9067 8.27252 16.6914 10.1854H23.5065ZM28.3622 4.78155H30.8731V7.12505H30.9447C31.5663 5.47476 32.4748 4.78155 34.2925 4.78155H35.1295V7.52884H33.3597C31.7816 7.52884 31.1121 8.46164 31.1121 10.1828V17.5762H28.3648L28.3622 4.78155ZM37.4001 13.4151C38.4518 14.7063 39.743 15.6634 41.4169 15.6634C42.5887 15.6634 43.5694 15.2085 43.5694 14.2284C43.5694 13.1997 42.3497 12.695 40.9148 12.2676C38.9546 11.6459 36.5389 10.7604 36.5389 8.32172C36.5389 6.21717 38.6435 4.42441 41.2975 4.42441C44.0479 4.42441 45.6497 6.00314 46.3908 7.67706L44.3853 8.70442C44.118 8.10895 43.6851 7.60293 43.1382 7.24676C42.5912 6.89059 41.9533 6.69929 41.3007 6.69571C40.1506 6.69571 39.2919 7.29372 39.2919 8.1786C39.2919 9.25451 40.3442 9.61294 41.8028 10.0672C43.8115 10.6889 46.3224 11.4543 46.3224 13.9888C46.3224 16.5233 43.9074 17.9347 41.3249 17.9347C40.2036 17.9357 39.0998 17.6562 38.1141 17.1215C37.1284 16.5869 36.2922 15.8142 35.6815 14.8737L37.4001 13.4151ZM54.402 4.42377C58.252 4.42377 61.0734 7.48475 61.0734 11.1674C61.0734 14.873 58.0367 17.9347 54.3541 17.9347C50.6715 17.9347 47.6347 14.8737 47.6347 11.1674C47.6347 7.48475 50.7194 4.42377 54.402 4.42377ZM54.3522 15.4244C56.6478 15.4244 58.4412 13.5352 58.4412 11.168C58.4412 8.82453 56.6478 6.9353 54.3522 6.9353C52.0323 6.9353 50.2632 8.80089 50.2632 11.168C50.2632 13.5115 52.0323 15.4244 54.3522 15.4244ZM62.8649 4.78347H65.3758V7.19852H65.4237C66.285 5.66516 67.504 4.42441 69.6565 4.42441C72.4542 4.42441 73.9844 6.52895 73.9844 9.4941V17.5762H71.2371V9.92409C71.2371 8.1786 70.5918 6.8631 68.8732 6.8631C66.7207 6.8631 65.6205 8.96765 65.6205 10.9521V17.5762H62.8732L62.8649 4.78347ZM81.7611 10.1151H84.272V9.30243C84.272 7.98693 83.483 6.98257 81.9285 6.98257C80.4463 6.98257 79.1071 8.01121 78.4376 9.46982L76.1177 8.34599C77.1943 5.88238 79.3704 4.47168 81.9528 4.47168C84.8918 4.47168 87.0225 6.19672 87.0225 9.30243V14.8979C87.0225 15.1848 87.0704 15.3043 87.3809 15.3043H88.3393V17.5762H86.5938C85.4936 17.5762 84.7525 16.9303 84.7525 15.5432V14.9216H84.633C83.7718 16.7872 82.0263 17.8605 80.0891 17.8605C78.0331 17.8605 76.096 16.6652 76.096 14.1549C76.096 11.6447 78.5353 10.1132 81.7631 10.1132L81.7611 10.1151ZM80.6392 15.5892C82.3643 15.5892 84.0586 14.1549 84.2739 12.0261H81.91C80.1166 12.0261 78.849 12.672 78.849 13.9869C78.849 14.9912 79.5901 15.5892 80.6424 15.5892H80.6392ZM90.2554 0H93.0026V14.8258C93.0026 15.1605 93.0263 15.3043 93.4326 15.3043H95.1577V17.5762H92.4947C90.7486 17.5762 90.2464 16.4524 90.2464 14.85L90.2554 0Z" fill="#1EB2F5"/>
</svg>
